<svg xmlns="http://www.w3.org/2000/svg" width="35" height="35" viewBox="0 0 35 35">
  <g id="Group_67" data-name="Group 67" transform="translate(0 35) rotate(-90)">
    <g id="call-calling_bulk" data-name="call-calling/bulk">
      <g id="vuesax_bulk_call-calling" data-name="vuesax/bulk/call-calling">
        <g id="call-calling">
          <path id="Vector" d="M6.25,7.366a1.1,1.1,0,0,1-1.1-1.1A4.978,4.978,0,0,0,3.733,3.676,3.991,3.991,0,0,0,1.1,2.2,1.1,1.1,0,1,1,1.1,0,6.079,6.079,0,0,1,5.349,2.16,6.749,6.749,0,0,1,7.366,6.25,1.117,1.117,0,0,1,6.25,7.366Z" transform="translate(19.425 8.21)" fill="#0335D8"/>
          <path id="Vector-2" data-name="Vector" d="M11.4,12.514a1.1,1.1,0,0,1-1.1-1.1,9.208,9.208,0,0,0-9.2-9.2A1.109,1.109,0,0,1,1.087,0,11.426,11.426,0,0,1,12.5,11.413,1.111,1.111,0,0,1,11.4,12.514Z" transform="translate(19.64 2.86)" fill="#0335D8"/>
          <path id="Vector-3" data-name="Vector" d="M14,17.463,9.325,22.139q-.772-.686-1.5-1.416a40.637,40.637,0,0,1-3.99-4.677,25.5,25.5,0,0,1-2.8-4.877A12.046,12.046,0,0,1,0,6.493a7.4,7.4,0,0,1,.515-2.76A6.583,6.583,0,0,1,2.16,1.344,4.191,4.191,0,0,1,5.134,0,2.688,2.688,0,0,1,6.293.257a2.331,2.331,0,0,1,.958.8l3.318,4.677a4.895,4.895,0,0,1,.572,1,2.261,2.261,0,0,1,.2.872,1.941,1.941,0,0,1-.3,1.015,4.865,4.865,0,0,1-.8,1.015l-1.087,1.13a.765.765,0,0,0-.229.572,1.3,1.3,0,0,0,.043.329c.043.114.086.2.114.286a11.868,11.868,0,0,0,1.33,1.831c.644.744,1.33,1.5,2.074,2.26C13,16.547,13.5,17.034,14,17.463Z" transform="translate(2.86 2.86)" fill="#0335D8" opacity="0.4"/>
          <path id="Vector-4" data-name="Vector" d="M17.692,6.136a3.632,3.632,0,0,1-.215,1.216,3.493,3.493,0,0,1-.143.343,5.9,5.9,0,0,1-.973,1.459,6.448,6.448,0,0,1-2.346,1.688c-.014,0-.029.014-.043.014a7.225,7.225,0,0,1-2.746.529A11.919,11.919,0,0,1,6.565,10.34a25.121,25.121,0,0,1-4.92-2.832C1.087,7.094.529,6.679,0,6.236L4.677,1.559a8.035,8.035,0,0,0,1.058.686c.072.029.157.072.257.114a.988.988,0,0,0,.358.057.787.787,0,0,0,.586-.243L8.024,1.1A4.388,4.388,0,0,1,9.053.3,1.9,1.9,0,0,1,10.069,0a2.282,2.282,0,0,1,.872.186,5.531,5.531,0,0,1,1,.558L16.676,4.1a2.169,2.169,0,0,1,.787.915A2.934,2.934,0,0,1,17.692,6.136Z" transform="translate(14.405 20.755)" fill="#0335D8"/>
          <path id="Vector-5" data-name="Vector" d="M0,0H35V35H0Z" fill="none" opacity="0"/>
        </g>
      </g>
    </g>
  </g>
</svg>
