<svg width="123" height="63" viewBox="0 0 123 63" fill="none" xmlns="http://www.w3.org/2000/svg"><g id="Group 7080"><g id="Group 7018"><path id="Path 11636" d="M122.343 10.344V49.244H68.363V8.77903C68.3598 7.62526 68.5848 6.48226 69.0249 5.41571C69.4649 4.34917 70.1114 3.38011 70.9272 2.56427C71.7431 1.74844 72.7121 1.1019 73.7787 0.661837C74.8452 0.221773 75.9883 -0.00313417 77.1421 3.299e-05V40.506H83.442V30.64C83.4357 29.4858 83.6593 28.3419 84.0995 27.2748C84.5397 26.2078 85.1877 25.2391 86.006 24.425L86.354 24.077C87.9692 22.6396 90.0588 21.85 92.221 21.86V40.505H98.521V24.426C98.5178 23.2723 98.7428 22.1292 99.1828 21.0627C99.6229 19.9962 100.269 19.0271 101.085 18.2113C101.901 17.3954 102.87 16.7489 103.937 16.3088C105.003 15.8688 106.146 15.6439 107.3 15.647V40.507H113.559V19.167C113.566 16.8394 114.487 14.6077 116.123 12.952C116.932 12.1241 117.899 11.4667 118.966 11.0187C120.034 10.5708 121.18 10.3414 122.338 10.344" fill="#fff"/></g><g id="Group 7077"><path id="Path 11637" d="M61.0611 15.472C60.247 14.6537 59.2782 14.0056 58.2112 13.5654C57.1442 13.1252 56.0002 12.9018 54.846 12.908H41.329V27.468H26.552V39.637H21.858V27.468H13.079L8.77907 27.511C6.52358 27.5068 4.35305 28.3714 2.71828 29.9254C1.08351 31.4793 0.110048 33.6032 1.54348e-05 35.856V54.067C-0.00421267 56.3225 0.860368 58.493 2.41432 60.1278C3.96828 61.7625 6.09218 62.736 8.34499 62.846H8.82301V36.29H13.039V37.072C13.0463 39.3996 13.967 41.6313 15.603 43.287C16.4171 44.1053 17.3858 44.7534 18.4528 45.1936C19.5198 45.6338 20.6638 45.8573 21.818 45.851H35.335V36.289H41.335V40.548C41.3318 41.7018 41.5568 42.8448 41.9968 43.9114C42.4369 44.9779 43.0835 45.9469 43.8993 46.7628C44.7151 47.5786 45.6842 48.2252 46.7507 48.6652C47.8173 49.1053 48.9603 49.3302 50.114 49.327H63.631V21.727C63.6415 20.5658 63.4201 19.4141 62.9799 18.3396C62.5396 17.265 61.8893 16.2891 61.067 15.469L61.0611 15.472ZM54.8521 43.154H50.158V36.244H54.8521V43.154ZM54.8521 27.464H50.158V20.554H54.8521V27.464Z" fill="#fff"/></g><g id="Group 7021"><path id="Path 11639" d="M25.7271 56.631H22.511C22.3503 56.6286 22.1908 56.6581 22.0416 56.7178C21.8925 56.7776 21.7566 56.8663 21.642 56.979C21.5342 57.0791 21.4478 57.2 21.3879 57.3344C21.3281 57.4688 21.2961 57.6139 21.2939 57.761V57.891H25.771C25.8515 57.8888 25.9315 57.903 26.0063 57.9328C26.0812 57.9625 26.1492 58.0072 26.2062 58.0641C26.2632 58.121 26.3079 58.1889 26.3378 58.2636C26.3677 58.3384 26.3821 58.4185 26.38 58.499V59.107H19.467V58.499C19.4767 58.2509 19.435 58.0036 19.3445 57.7724C19.254 57.5413 19.1167 57.3313 18.9412 57.1558C18.7656 56.9803 18.5557 56.843 18.3246 56.7525C18.0934 56.662 17.8461 56.6203 17.598 56.63H14.208C14.0739 56.638 13.9429 56.6729 13.8226 56.7327C13.7024 56.7925 13.5953 56.8759 13.5079 56.978C13.3241 57.1863 13.2035 57.4426 13.16 57.717V57.891H17.637C17.7174 57.8889 17.7974 57.9032 17.8721 57.933C17.9468 57.9629 18.0147 58.0076 18.0715 58.0645C18.1284 58.1213 18.1731 58.1892 18.2029 58.2639C18.2327 58.3386 18.2471 58.4186 18.245 58.499V59.107H15.0291C14.5392 59.107 14.0694 59.3016 13.723 59.648C13.3766 59.9943 13.182 60.4641 13.182 60.954C13.182 61.4438 13.3766 61.9136 13.723 62.26C14.0694 62.6064 14.5392 62.801 15.0291 62.801H18.115V62.631C18.0808 62.3538 17.9588 62.0949 17.767 61.892L17.6799 61.805C17.5029 61.6668 17.2932 61.5769 17.071 61.544H15.071C14.9906 61.5462 14.9104 61.532 14.8356 61.5022C14.7608 61.4724 14.6928 61.4277 14.6359 61.3709C14.5789 61.314 14.534 61.2461 14.5042 61.1713C14.4743 61.0965 14.46 61.0165 14.462 60.936C14.459 60.8531 14.4722 60.7705 14.5012 60.6928C14.5302 60.6151 14.5743 60.5439 14.6309 60.4833C14.6875 60.4227 14.7555 60.3739 14.8311 60.3397C14.9066 60.3055 14.9882 60.2865 15.071 60.284H27.671V58.459C27.638 57.9632 27.4174 57.4985 27.0541 57.1595C26.6907 56.8206 26.2119 56.6326 25.715 56.634" fill="#fff"/></g><g id="Group 7022"><path id="Rectangle 2349" d="M23.8056 60.8007L23.0689 61.539L23.8073 62.2757L24.5439 61.5373L23.8056 60.8007Z" fill="#fff"/></g><g id="Group 7023"><path id="Path 11640" d="M31.116 55.371L31.8549 56.11L32.5939 55.371L31.8549 54.632L31.116 55.371Z" fill="#fff"/></g><g id="Group 7024"><path id="Path 11641" d="M31.2469 57.761V59.108H30.03V53.849C29.8694 53.8466 29.7097 53.8761 29.5605 53.9358C29.4114 53.9956 29.2756 54.0843 29.161 54.197C29.0531 54.2971 28.9667 54.4179 28.9069 54.5524C28.847 54.6868 28.8151 54.8319 28.813 54.979V60.325H32.507V56.631C32.3463 56.6286 32.1868 56.6581 32.0376 56.7178C31.8884 56.7775 31.7525 56.8663 31.6379 56.979C31.4243 57.189 31.2868 57.4641 31.2469 57.761" fill="#fff"/></g><g id="Group 7025"><path id="Path 11642" d="M63.495 54.197C63.3949 54.0891 63.2741 54.0027 63.1396 53.9429C63.0052 53.8831 62.8601 53.8511 62.713 53.849H62.626V59.108H61.926C61.773 59.0953 61.6303 59.0259 61.5258 58.9134C61.4212 58.801 61.3624 58.6535 61.361 58.5V55.892H60.1439V58.5C60.1485 58.7054 60.1777 58.9095 60.231 59.108C60.3075 59.377 60.4515 59.622 60.6493 59.8197C60.847 60.0175 61.092 60.1614 61.361 60.238C61.5604 60.2882 61.7645 60.3174 61.97 60.325H62.578C62.5801 60.4054 62.5657 60.4854 62.5359 60.5601C62.5061 60.6348 62.4614 60.7026 62.4045 60.7595C62.3477 60.8164 62.2798 60.8611 62.2051 60.8909C62.1304 60.9207 62.0504 60.935 61.97 60.933H61.1439C60.884 60.9853 60.6426 61.1054 60.444 61.281C60.3361 61.381 60.2496 61.5019 60.1898 61.6363C60.13 61.7707 60.0981 61.9159 60.0959 62.063V62.149H61.965C62.2096 62.1601 62.454 62.1209 62.6829 62.0337C62.9117 61.9465 63.1203 61.8132 63.2955 61.6421C63.4708 61.471 63.609 61.2657 63.7017 61.039C63.7943 60.8122 63.8393 60.5688 63.834 60.324V54.935C63.8202 54.6524 63.695 54.3867 63.486 54.196" fill="#fff"/></g><g id="Group 7026"><path id="Path 11643" d="M37.071 56.978C36.9632 57.078 36.8767 57.1989 36.8169 57.3333C36.7571 57.4677 36.7251 57.6129 36.723 57.76V60.411C36.723 60.846 36.81 60.933 35.941 60.933H35.8981C35.5879 60.9367 35.2914 61.0616 35.072 61.281V61.281C34.9642 61.381 34.8777 61.5019 34.8179 61.6363C34.7581 61.7707 34.7261 61.9159 34.724 62.063V62.15H36.376C36.6183 62.1502 36.8575 62.0957 37.0757 61.9904C37.2939 61.8851 37.4854 61.7318 37.636 61.542C37.873 61.1976 37.9949 60.7869 37.984 60.369V56.587C37.6437 56.608 37.3211 56.7461 37.071 56.978" fill="#fff"/></g><g id="Group 7027"><path id="Path 11644" d="M48.501 54.154L48.153 53.854L47.762 53.419L47.327 53.854L47.027 54.154L47.7659 54.893L48.501 54.154Z" fill="#fff"/></g><g id="Group 7028"><path id="Path 11645" d="M47.718 55.501L48.3701 56.153L49.1089 55.414L48.3701 54.675L47.718 55.283L47.11 54.675L46.371 55.414L47.11 56.153L47.718 55.501Z" fill="#fff"/></g><g id="Group 7029"><path id="Path 11646" d="M50.8041 55.501L51.4131 56.153L52.152 55.414L51.4131 54.675L50.8041 55.283L50.1951 54.675L49.4561 55.414L50.1951 56.153L50.8041 55.501Z" fill="#fff"/></g><g id="Group 7030"><path id="Path 11647" d="M59.106 55.848H58.8889C58.7077 55.9015 58.5327 55.9743 58.3669 56.065C58.3239 56.108 58.28 56.108 58.28 56.152C58.0882 56.355 57.9663 56.6139 57.932 56.891V56.891V59.064H56.715V56.588H56.4979C56.317 56.6416 56.1424 56.7144 55.9769 56.805C55.9339 56.848 55.89 56.848 55.89 56.892C55.6982 57.0949 55.5763 57.3539 55.542 57.631V57.631V59.022H54.325V57.153H54.108C53.9268 57.2066 53.7517 57.2793 53.5859 57.37C53.5429 57.413 53.499 57.413 53.499 57.457C53.3073 57.66 53.1853 57.9189 53.151 58.196V58.935H51.934V56.458H51.673C51.4917 56.5116 51.3168 56.5843 51.151 56.675C51.108 56.718 51.064 56.718 51.064 56.762C50.8722 56.965 50.7503 57.2239 50.7159 57.501V58.888H48.891V56.411H48.63C48.4488 56.4646 48.2738 56.5373 48.108 56.628C48.065 56.671 48.021 56.671 48.021 56.715C47.8292 56.9179 47.7072 57.1769 47.673 57.454V58.845H45.848V58.237C45.848 57.7471 45.6534 57.2773 45.307 56.931C44.9606 56.5846 44.4908 56.39 44.001 56.39C43.5111 56.39 43.0413 56.5846 42.6949 56.931C42.3486 57.2773 42.1539 57.7471 42.1539 58.237V58.845H40.589V53.588H40.328C40.1386 53.6393 39.9615 53.7281 39.807 53.849C39.764 53.892 39.72 53.892 39.72 53.936C39.5282 54.139 39.4062 54.3979 39.3719 54.675V60.108H59.408L59.108 55.849L59.106 55.848ZM44.3729 59.064H43.156V58.456C43.1624 58.2989 43.2292 58.1503 43.3427 58.0414C43.4561 57.9325 43.6073 57.8717 43.7645 57.8717C43.9218 57.8717 44.0729 57.9325 44.1863 58.0414C44.2997 58.1503 44.3666 58.2989 44.3729 58.456V59.064Z" fill="#fff"/></g><g id="Group 7031"><path id="Path 11648" d="M61.496 55.283V54.805H60.9741C60.9107 54.805 60.8498 54.7798 60.805 54.735C60.7602 54.6902 60.735 54.6294 60.735 54.566C60.735 54.5026 60.7602 54.4419 60.805 54.397C60.8498 54.3522 60.9107 54.327 60.9741 54.327H61.235V53.849H60.9741C60.8573 53.8449 60.7412 53.8693 60.636 53.9203C60.5309 53.9713 60.4397 54.0473 60.3707 54.1416C60.3016 54.2359 60.2568 54.3456 60.2399 54.4613C60.2231 54.5769 60.2347 54.6949 60.274 54.805H59.888V55.283H61.496Z" fill="#fff"/></g><g id="Group 7032"><path id="Path 11649" d="M77.406 54.197C77.306 54.0891 77.1851 54.0027 77.0507 53.9429C76.9163 53.8831 76.7711 53.8511 76.624 53.849H76.537V59.108H75.3201V58.5C75.3301 58.2577 75.2897 58.0159 75.2015 57.7899C75.1134 57.564 74.9793 57.3587 74.8077 57.1872C74.6362 57.0157 74.431 56.8817 74.2051 56.7935C73.9791 56.7053 73.7373 56.665 73.495 56.675H71.626V59.149H67.845C67.696 59.1355 67.5582 59.0644 67.4607 58.9509C67.3632 58.8374 67.3138 58.6903 67.323 58.541C67.3209 58.4605 67.3354 58.3804 67.3652 58.3057C67.3951 58.2309 67.4398 58.163 67.4968 58.1061C67.5538 58.0492 67.6218 58.0045 67.6967 57.9748C67.7715 57.945 67.8515 57.9308 67.932 57.933H69.801C69.8035 57.7723 69.774 57.6127 69.7142 57.4636C69.6545 57.3144 69.5657 57.1786 69.453 57.064C69.353 56.9561 69.2321 56.8697 69.0977 56.8098C68.9633 56.75 68.8181 56.7181 68.671 56.716H67.932C67.6817 56.7041 67.4318 56.7462 67.1991 56.8393C66.9664 56.9324 66.7564 57.0745 66.5834 57.2557C66.4103 57.437 66.2784 57.6534 66.1962 57.8901C66.114 58.1269 66.0836 58.3785 66.1071 58.628C66.1147 58.819 66.1438 59.0085 66.194 59.193C66.3013 59.5639 66.5324 59.8869 66.8488 60.1083C67.1651 60.3297 67.5477 60.4362 67.933 60.41H72.844V57.933H73.452C73.5325 57.9308 73.6126 57.945 73.6874 57.9748C73.7622 58.0045 73.8302 58.0492 73.8872 58.1061C73.9442 58.163 73.989 58.2309 74.0189 58.3057C74.0488 58.3804 74.0631 58.4605 74.061 58.541V59.758C74.0591 59.8384 74.0735 59.9183 74.1034 59.9929C74.1333 60.0676 74.178 60.1353 74.2349 60.1922C74.2917 60.249 74.3595 60.2937 74.4341 60.3236C74.5087 60.3535 74.5887 60.3679 74.6691 60.366H77.7111V54.979C77.7276 54.8341 77.709 54.6874 77.6567 54.5513C77.6045 54.4151 77.5202 54.2936 77.411 54.197" fill="#fff"/></g><g id="Group 7033"><path id="Path 11650" d="M87.0519 54.197C86.9519 54.0892 86.831 54.0027 86.6966 53.9429C86.5622 53.8831 86.4171 53.8512 86.27 53.849H86.1829V59.108H85.483C85.33 59.0953 85.1872 59.0259 85.0827 58.9134C84.9782 58.801 84.9195 58.6535 84.918 58.5V55.892H83.701V58.5C83.7055 58.7054 83.7348 58.9095 83.788 59.108C83.8695 59.3674 84.0099 59.6044 84.1983 59.8004C84.3867 59.9965 84.618 60.1463 84.874 60.238C85.0835 60.3094 85.305 60.339 85.5259 60.325H86.1349C86.137 60.4055 86.1227 60.4855 86.0928 60.5603C86.0629 60.6351 86.0181 60.703 85.9611 60.7599C85.9041 60.8167 85.8362 60.8614 85.7614 60.8912C85.6866 60.921 85.6064 60.9352 85.5259 60.933H84.7C84.4401 60.9853 84.1986 61.1054 83.9999 61.281C83.8921 61.381 83.8056 61.5019 83.7458 61.6363C83.686 61.7707 83.654 61.9159 83.6519 62.063V62.149H85.5209C85.7656 62.1601 86.0101 62.1209 86.239 62.0337C86.4678 61.9465 86.6763 61.8132 86.8515 61.6421C87.0267 61.471 87.165 61.2657 87.2576 61.039C87.3502 60.8122 87.3953 60.5688 87.39 60.324V55.109V54.979C87.3466 54.6917 87.2264 54.4215 87.0419 54.197" fill="#fff"/></g><g id="Group 7034"><path id="Path 11651" d="M69.797 61.411L69.188 60.803L68.449 61.542L69.188 62.281L69.797 61.673L70.405 62.281L71.144 61.542L70.405 60.803L69.797 61.411Z" fill="#fff"/></g><g id="Group 7035"><path id="Path 11652" d="M80.663 56.6311C80.1732 56.6311 79.7034 56.8256 79.357 57.172C79.0106 57.5184 78.816 57.9882 78.816 58.478C78.816 58.9679 79.0106 59.4377 79.357 59.7841C79.7034 60.1304 80.1732 60.3251 80.663 60.3251C80.738 60.3319 80.8134 60.3169 80.8801 60.2821V60.2821C80.9884 60.2611 81.0907 60.2167 81.18 60.152C81.0954 60.3917 80.9353 60.5975 80.7238 60.7385C80.5123 60.8795 80.2608 60.9481 80.007 60.9341H79.8329C79.573 60.9864 79.3316 61.1065 79.133 61.2821C79.0251 61.3821 78.9387 61.503 78.8788 61.6374C78.819 61.7718 78.7871 61.9169 78.785 62.064V62.151H80.002C80.3305 62.1631 80.658 62.1073 80.9639 61.987C81.2699 61.8668 81.5479 61.6848 81.7803 61.4523C82.0128 61.2199 82.1948 60.942 82.315 60.636C82.4352 60.3301 82.4911 60.0026 82.4791 59.6741V58.457C82.497 58.2128 82.4619 57.9676 82.3765 57.738C82.2911 57.5085 82.1574 57.3 81.9842 57.1269C81.811 56.9537 81.6025 56.8199 81.373 56.7345C81.1435 56.6491 80.8982 56.6142 80.654 56.6321L80.663 56.6311ZM81.263 59.0661H80.654C80.5761 59.0728 80.4977 59.0631 80.4238 59.0376C80.3498 59.0122 80.2821 58.9716 80.2248 58.9183C80.1675 58.8651 80.122 58.8005 80.0912 58.7286C80.0605 58.6567 80.045 58.5792 80.046 58.501C80.0349 58.4166 80.0427 58.3307 80.0687 58.2496C80.0947 58.1685 80.1383 58.0941 80.1964 58.0318C80.2544 57.9695 80.3256 57.9208 80.4047 57.8892C80.4838 57.8576 80.569 57.8439 80.654 57.849C80.7345 57.8468 80.8145 57.8611 80.8893 57.8908C80.9642 57.9206 81.0322 57.9653 81.0892 58.0222C81.1462 58.0791 81.191 58.147 81.2209 58.2217C81.2508 58.2965 81.2651 58.3765 81.263 58.457V59.0661Z" fill="#fff"/></g><g id="Group 7036"><path id="Path 11653" d="M88.703 53.849H88.616V60.325H89.833V54.892C89.7806 54.6321 89.6606 54.3906 89.485 54.192C89.2711 53.991 88.9955 53.8684 88.703 53.844" fill="#fff"/></g><g id="Group 7037"><path id="Path 11654" d="M85.052 55.283V54.805H84.531C84.4676 54.805 84.4069 54.7798 84.3621 54.735C84.3172 54.6902 84.292 54.6294 84.292 54.566C84.292 54.5026 84.3172 54.4419 84.3621 54.397C84.4069 54.3522 84.4676 54.327 84.531 54.327H84.792V53.849H84.531C84.4142 53.8449 84.2982 53.8693 84.193 53.9203C84.0878 53.9713 83.9968 54.0473 83.9277 54.1416C83.8587 54.2359 83.8137 54.3456 83.7969 54.4613C83.78 54.5769 83.7918 54.6949 83.8311 54.805H83.4401V55.283H85.048H85.052Z" fill="#fff"/></g><g id="Group 7038"><path id="Path 11655" d="M100.351 55.283L99.7421 54.675L99.0031 55.414L99.7421 56.153L100.351 55.501L100.959 56.153L101.698 55.414L100.959 54.675L100.351 55.283Z" fill="#fff"/></g><g id="Group 7039"><path id="Path 11656" d="M100.047 57.239V59.064H98.2219V54.935C98.1877 54.6579 98.0658 54.399 97.874 54.196C97.774 54.0882 97.6531 54.0017 97.5187 53.9419C97.3843 53.8821 97.239 53.8501 97.0919 53.848H97.005V59.107H93.919C93.7576 59.107 93.6028 59.0429 93.4887 58.9288C93.3745 58.8147 93.3104 58.6599 93.3104 58.4985C93.3104 58.3371 93.3745 58.1824 93.4887 58.0682C93.6028 57.9541 93.7576 57.89 93.919 57.89V56.673C93.6686 56.6612 93.4187 56.7032 93.186 56.7964C92.9534 56.8895 92.7434 57.0315 92.5703 57.2128C92.3973 57.3941 92.2653 57.6104 92.1831 57.8471C92.1009 58.0839 92.0705 58.3355 92.094 58.585C92.1017 58.776 92.131 58.9655 92.181 59.15C92.2884 59.5209 92.5193 59.8439 92.8357 60.0653C93.1521 60.2867 93.5347 60.3932 93.9199 60.367H101.309V56.673H100.7C100.618 56.6581 100.535 56.6617 100.455 56.6836C100.375 56.7054 100.301 56.7449 100.238 56.7991C100.176 56.8533 100.126 56.9209 100.093 56.9969C100.06 57.0729 100.045 57.1553 100.048 57.238" fill="#fff"/></g><g id="Group 7040"><path id="Path 11657" d="M119.301 55.414L118.562 54.675L117.823 55.414L118.562 56.153L119.301 55.414Z" fill="#fff"/></g><g id="Group 7041"><path id="Path 11658" d="M120.474 56.631H117.258C117.097 56.627 116.937 56.6558 116.788 56.7155C116.638 56.7753 116.502 56.8648 116.389 56.9786C116.275 57.0924 116.185 57.2281 116.125 57.3776C116.066 57.527 116.037 57.6871 116.041 57.848H120.518C120.598 57.8459 120.678 57.8603 120.753 57.8901C120.828 57.9199 120.896 57.9646 120.953 58.0215C121.009 58.0784 121.054 58.1462 121.084 58.2209C121.114 58.2956 121.128 58.3756 121.126 58.456V59.064H114.216V58.456C114.227 58.2113 114.188 57.967 114.101 57.7381C114.014 57.5092 113.88 57.3007 113.709 57.1254C113.538 56.9502 113.333 56.8119 113.106 56.7193C112.879 56.6267 112.636 56.5817 112.391 56.587H109.783C109.549 56.5965 109.319 56.6555 109.109 56.7603C108.899 56.8652 108.714 57.0133 108.566 57.195V54.895C108.532 54.6179 108.41 54.359 108.218 54.156C108.118 54.0481 107.997 53.9617 107.863 53.9019C107.728 53.842 107.583 53.8101 107.436 53.808H107.349V59.067H106.132V58.459C106.141 58.2132 106.098 57.9683 106.007 57.7399C105.915 57.5116 105.777 57.3049 105.601 57.133C105.425 56.9612 105.215 56.828 104.985 56.7421C104.754 56.6562 104.508 56.6194 104.263 56.634C104.016 56.6214 103.77 56.6615 103.539 56.7515C103.309 56.8416 103.101 56.9796 102.928 57.1564C102.756 57.3332 102.623 57.5447 102.538 57.7769C102.454 58.0091 102.419 58.2566 102.438 58.503C102.446 58.7081 102.475 58.9119 102.525 59.111C102.632 59.4819 102.863 59.8049 103.18 60.0263C103.496 60.2477 103.879 60.3542 104.264 60.328H104.742C104.631 60.5161 104.472 60.6715 104.281 60.7783C104.09 60.885 103.875 60.9395 103.656 60.936H103.439C103.179 60.9884 102.938 61.1084 102.739 61.284C102.631 61.384 102.545 61.5049 102.485 61.6393C102.425 61.7738 102.393 61.9189 102.391 62.066V62.153H103.782C104.309 62.1472 104.819 61.9639 105.229 61.6328C105.639 61.3017 105.925 60.842 106.042 60.328H122.427V58.456C122.401 57.9575 122.183 57.4884 121.818 57.1479C121.453 56.8074 120.97 56.622 120.471 56.631H120.474ZM104.781 59.065H104.081C103.932 59.0512 103.795 58.9801 103.697 58.8666C103.6 58.7531 103.551 58.6062 103.56 58.457C103.566 58.2999 103.633 58.1513 103.747 58.0424C103.86 57.9335 104.011 57.8727 104.168 57.8727C104.326 57.8727 104.477 57.9335 104.59 58.0424C104.704 58.1513 104.771 58.2999 104.777 58.457V59.065H104.781ZM112.952 59.065H108.475C108.467 58.9031 108.493 58.7412 108.551 58.5899C108.61 58.4387 108.699 58.3013 108.814 58.1866C108.928 58.072 109.066 57.9826 109.217 57.9243C109.368 57.866 109.53 57.84 109.692 57.848H112.3C112.38 57.8459 112.46 57.8603 112.535 57.8901C112.61 57.9199 112.678 57.9646 112.734 58.0215C112.791 58.0784 112.836 58.1462 112.866 58.2209C112.896 58.2956 112.91 58.3756 112.908 58.456V59.064L112.952 59.065Z" fill="#fff"/></g><g id="Group 7042"><path id="Path 11659" d="M96.136 57.804V57.326H95.658C95.5946 57.326 95.5338 57.3008 95.489 57.256C95.4442 57.2112 95.4189 57.1504 95.4189 57.087C95.4189 57.0236 95.4442 56.9629 95.489 56.918C95.5338 56.8732 95.5946 56.848 95.658 56.848H95.9189V56.37H95.658C95.5412 56.3658 95.4251 56.3903 95.3199 56.4413C95.2148 56.4923 95.1237 56.5683 95.0547 56.6626C94.9856 56.7569 94.9408 56.8666 94.924 56.9823C94.9071 57.0979 94.9188 57.2159 94.958 57.326H94.567V57.804H96.132H96.136Z" fill="#fff"/></g><g id="Vector"><path d="M35.38 19.036H13.0801L24.25 14.342L35.38 19.036Z" fill="#fff"/><path d="M13.08 19.732V26.903H21.8589V25.86C21.8576 25.5514 21.9175 25.2456 22.035 24.9603C22.1524 24.6749 22.3252 24.4157 22.5434 24.1975C22.7616 23.9793 23.0209 23.8064 23.3062 23.6889C23.5915 23.5715 23.8974 23.5117 24.206 23.513C24.5148 23.5087 24.8212 23.5687 25.1056 23.6892C25.3901 23.8097 25.6462 23.9881 25.858 24.213C26.0794 24.4274 26.2554 24.6841 26.3757 24.9679C26.4959 25.2517 26.5579 25.5568 26.5579 25.865V26.908H35.337V19.732H13.08ZM17.165 26.251H15.513V24.513H17.165V26.251ZM17.165 24.121H15.513C15.5316 23.6805 15.7092 23.2617 16.013 22.9422C16.3167 22.6226 16.726 22.424 17.165 22.383V24.121ZM19.165 26.251H17.513V24.513H19.165V26.251ZM17.513 24.121V22.383C17.9519 22.4242 18.361 22.6229 18.6647 22.9424C18.9684 23.2619 19.1461 23.6806 19.165 24.121H17.513ZM30.9429 26.251H29.2909V24.513H30.9429V26.251ZM30.9429 24.121H29.2909C29.3096 23.6805 29.4872 23.2617 29.7909 22.9422C30.0947 22.6226 30.504 22.424 30.9429 22.383V24.121ZM32.9429 26.251H31.2909V24.513H32.9429V26.251ZM31.2909 24.121V22.383C31.7299 22.424 32.1392 22.6226 32.4429 22.9422C32.7467 23.2617 32.9243 23.6805 32.9429 24.121H31.2909Z" fill="#fff"/></g><g id="translate" style="transform-origin: center; transform-box: fill-box; animation: translateX 2s linear infinite reverse;"><path id="Path 11661" d="M113.001 9.562L113.044 5.911L83.4031 18.471V14.429L111.61 2.52L109.001 0H122.344L113.001 9.562Z" fill="#fff"/></g></g><style> @keyframes translateX { 0%, 100% { transform: translateX(0px); } 50% { transform: translateX(-3px); } }</style></svg>