<svg width="898" height="354" viewBox="0 0 898 354" fill="none" xmlns="http://www.w3.org/2000/svg"><g id="undraw_houses-3-_xwf7 1" clip-path="url(#clip0_307_2)"><g id="Group 6754" opacity="0.7"><path id="Path 11344" opacity="0.7" d="M533.724 352.076H229.385L231.495 209.522L318.533 195.114H441.584L531.617 205.314L533.724 352.076Z" fill="url(#paint0_linear_307_2)"/></g><path id="Path 11345" d="M529.51 350.279H233.599L235.706 211.32L318.806 196.912H443.081L527.403 207.112L529.51 350.279Z" fill="#EEEEEE"/><g id="Group 6755" opacity="0.7"><path id="Rectangle 2096" opacity="0.7" d="M347.037 102.953H324.831V146.777H347.037V102.953Z" fill="url(#paint1_linear_307_2)"/></g><g id="Group 6756" opacity="0.7"><path id="Path 11346" opacity="0.7" d="M324.821 216.698V169.332H228.363L211.982 216.698V221.552H325.43V216.698H324.821Z" fill="url(#paint2_linear_307_2)"/></g><path id="Path 11347" d="M324.831 216.137H213.18L229.385 169.318H324.83L324.831 216.137Z" fill="#0056D3"/><path id="Path 11348" opacity="0.1" d="M324.831 216.137H213.18L229.385 169.318H324.83L324.831 216.137Z" fill="black"/><path id="Rectangle 2097" d="M325.43 221.209H213.18V226.012H325.43V221.209Z" fill="#0056D3"/><g id="Group 6757" opacity="0.7"><path id="Path 11349" opacity="0.7" d="M532.598 168.666H435.882V216.566H435.273V221.482H549.031V216.566L532.598 168.666Z" fill="url(#paint3_linear_307_2)"/></g><path id="Path 11350" d="M435.872 216.137H547.523L531.317 169.318H435.872V216.137Z" fill="#0056D3"/><path id="Path 11351" opacity="0.1" d="M435.872 216.137H547.523L531.317 169.318H435.872V216.137Z" fill="black"/><path id="Rectangle 2098" d="M435.273 226.012H547.523V221.209H435.273V226.012Z" fill="#0056D3"/><path id="Rectangle 2099" opacity="0.5" d="M303.822 255.765H243.194V293.578H303.822V255.765Z" fill="#0056D3"/><path id="Rectangle 2100" opacity="0.1" d="M307.417 302.561H239.59V309.161H307.417V302.561Z" fill="black"/><path id="Rectangle 2101" d="M307.417 301.962H239.59V308.562H307.417V301.962Z" fill="#535461"/><g id="Group 6758" opacity="0.1"><path id="Rectangle 2102" opacity="0.1" d="M303.822 251.648H243.194V266.655H303.822V251.648Z" fill="black"/></g><path id="Rectangle 2103" opacity="0.5" d="M518.117 255.765H457.489V293.578H518.117V255.765Z" fill="#0056D3"/><path id="Rectangle 2104" opacity="0.1" d="M521.712 302.561H453.885V309.161H521.712V302.561Z" fill="black"/><path id="Rectangle 2105" d="M521.712 301.962H453.885V308.562H521.712V301.962Z" fill="#535461"/><g id="Group 6759" opacity="0.1"><path id="Rectangle 2106" opacity="0.1" d="M518.117 251.648H457.489V266.655H518.117V251.648Z" fill="black"/></g><g id="Group 6760" opacity="0.7"><path id="Path 11352" opacity="0.7" d="M454.588 157.256L380.545 99.995L308.886 157.215L303.265 150.181L380.465 88.551L460.098 150.14L454.588 157.256Z" fill="url(#paint4_linear_307_2)"/></g><path id="Rectangle 2107" opacity="0.1" d="M314.925 226.505H235.086V227.404H314.925V226.505Z" fill="black"/><path id="Rectangle 2108" opacity="0.1" d="M528.023 226.505H447.285V227.404H528.023V226.505Z" fill="black"/><path id="Rectangle 2109" d="M346.438 103.651H325.43V146.865H346.438V103.651Z" fill="#535461"/><g id="Group 6761" opacity="0.7"><path id="Path 11353" opacity="0.7" d="M447.285 350.278H312.829V185.808L380.635 184.308L447.285 185.808V350.278Z" fill="url(#paint5_linear_307_2)"/></g><path id="Path 11354" d="M445.777 350.279H314.926V185.809L380.357 139.289L445.777 185.809V350.279Z" fill="white"/><path id="Rectangle 2110" d="M396.851 295.052H363.841V350.278H396.851V295.052Z" fill="#535461"/><path id="Rectangle 2111" opacity="0.1" d="M414.265 223.654H346.438V230.254H414.265V223.654Z" fill="black"/><path id="Rectangle 2112" opacity="0.5" d="M410.67 184.899H350.042V222.712H410.67V184.899Z" fill="#0056D3"/><path id="Rectangle 2113" d="M414.265 222.925H346.438V229.525H414.265V222.925Z" fill="#535461"/><g id="Group 6762" opacity="0.1"><path id="Rectangle 2114" opacity="0.1" d="M410.67 181.923H350.042V196.93H410.67V181.923Z" fill="black"/></g><path id="Path 11355" d="M454.588 158.02L380.545 100.759L308.886 157.979L303.267 150.945L380.467 89.315L460.1 150.904L454.588 158.02Z" fill="#0056D3"/><path id="Ellipse 643" d="M392.058 325.067C393.381 325.067 394.454 323.994 394.454 322.671C394.454 321.348 393.381 320.275 392.058 320.275C390.735 320.275 389.662 321.348 389.662 322.671C389.662 323.994 390.735 325.067 392.058 325.067Z" fill="#E0E0E0"/><g id="translate_1" style="transform-origin: center; transform-box: fill-box; animation: translateX .5s linear infinite reverse;"><g id="Group 6763" opacity="0.7"><path id="Rectangle 2115" opacity="0.7" d="M135.117 235.633H0V353.367H135.117V235.633Z" fill="url(#paint6_linear_307_2)"/></g><path id="Rectangle 2116" d="M133.692 236.944H2.314V352.034H133.692V236.944Z" fill="#EEEEEE"/><g id="Group 6764" opacity="0.7"><path id="Rectangle 2117" opacity="0.7" d="M43.576 172.274H27.288V204.406H43.576V172.274Z" fill="url(#paint7_linear_307_2)"/></g><path id="Rectangle 2118" d="M43.132 172.767H27.732V204.455H43.132V172.767Z" fill="#535461"/><g id="Group 6765" opacity="0.7"><path id="Path 11356" opacity="0.7" d="M117.073 352.044H18.488V231.444L68.209 230.339L117.073 231.444V352.044Z" fill="url(#paint8_linear_307_2)"/></g><g id="Group 6781"><path id="Path 11357" d="M115.979 352.045H20.027V231.445L68.003 197.335L115.979 231.45V352.045Z" fill="white"/><path id="Rectangle 2119" d="M80.108 311.547H55.898V352.035H80.108V311.547Z" fill="#535461"/><path id="Rectangle 2120" opacity="0.5" d="M90.23 231.716H45.776V259.448H90.23V231.716Z" fill="#0056D3"/><path id="Rectangle 2121" d="M92.864 258.958H43.132V263.802H92.864V258.958Z" fill="#535461"/><g id="Group 6766" opacity="0.1"><path id="Rectangle 2122" opacity="0.1" d="M90.23 229.101H45.776V240.101H90.23V229.101Z" fill="black"/></g><g id="Group 6767" opacity="0.7"><path id="Path 11358" opacity="0.7" d="M122.423 213.123L68.137 171.138L15.596 213.092L11.475 207.931L68.075 162.744L126.465 207.897L122.423 213.123Z" fill="url(#paint9_linear_307_2)"/></g><path id="Path 11359" d="M122.423 213.667L68.137 171.682L15.596 213.636L11.475 208.482L68.075 163.282L126.465 208.455L122.423 213.667Z" fill="#0056D3"/><path id="Ellipse 644" d="M76.586 333.557C77.5558 333.557 78.342 332.771 78.342 331.801C78.342 330.831 77.5558 330.045 76.586 330.045C75.6162 330.045 74.83 330.831 74.83 331.801C74.83 332.771 75.6162 333.557 76.586 333.557Z" fill="#E0E0E0"/></g></g><g id="translate_2" style="transform-origin: center; transform-box: fill-box; animation: translateXR .5s linear infinite reverse;"><g id="Group 6768" opacity="0.7"><path id="Path 11360" opacity="0.7" d="M884.603 352.417H634.22L635.945 165.606L707.552 146.726H808.802L882.878 160.101L884.603 352.417Z" fill="url(#paint10_linear_307_2)"/></g><path id="Path 11361" d="M881.143 350.061H637.68L639.415 167.961L707.79 149.09H810.031L879.407 162.455L881.143 350.061Z" fill="#EEEEEE"/><g id="Group 6769" opacity="0.7"><path id="Rectangle 2123" opacity="0.7" d="M731.008 4.586H712.737V40.643H731.008V4.586Z" fill="url(#paint11_linear_307_2)"/></g><g id="Group 6770" opacity="0.7"><path id="Path 11362" opacity="0.7" d="M712.737 134.66V95.691H633.373L619.894 134.66V138.66H713.232V134.66H712.737Z" fill="url(#paint12_linear_307_2)"/></g><path id="Path 11363" d="M712.737 134.499H620.886L634.22 95.974H712.737V134.499Z" fill="#0056D3"/><path id="Path 11364" opacity="0.1" d="M712.737 134.499H620.886L634.22 95.974H712.737V134.499Z" fill="black"/><path id="Rectangle 2124" d="M713.243 140.494H620.886V144.45H713.243V140.494Z" fill="#0056D3"/><g id="Group 6771" opacity="0.7"><path id="Path 11365" opacity="0.7" d="M883.684 96.348H804.113V135.761H803.607V139.81H897.193V135.761L883.684 96.348Z" fill="url(#paint13_linear_307_2)"/></g><path id="Path 11366" d="M804.103 135.717H895.965L882.63 97.207H804.103V135.717Z" fill="#0056D3"/><path id="Path 11367" opacity="0.1" d="M804.103 135.717H895.965L882.63 97.207H804.103V135.717Z" fill="black"/><g id="Group 6782"><path id="Rectangle 2125" d="M803.607 145.641H895.964V141.685H803.607V145.641Z" fill="#0056D3"/><path id="Rectangle 2126" opacity="0.5" d="M695.447 282.782H645.571V313.891H695.447V282.782Z" fill="#0056D3"/><path id="Rectangle 2127" opacity="0.1" d="M698.422 311.671H642.617V317.104H698.422V311.671Z" fill="black"/><path id="Rectangle 2128" d="M698.422 311.185H642.617V316.618H698.422V311.185Z" fill="#535461"/><g id="Group 6772" opacity="0.1"><path id="Rectangle 2129" opacity="0.1" d="M695.447 269.932H645.571V282.275H695.447V269.932Z" fill="black"/></g><path id="Rectangle 2130" opacity="0.5" d="M871.764 282.782H821.888V313.891H871.764V282.782Z" fill="#0056D3"/><path id="Rectangle 2131" opacity="0.1" d="M874.729 311.671H818.924V317.104H874.729V311.671Z" fill="black"/><path id="Rectangle 2132" d="M874.729 311.185H818.924V316.618H874.729V311.185Z" fill="#535461"/><g id="Group 6773" opacity="0.1"><path id="Rectangle 2133" opacity="0.1" d="M871.764 269.932H821.888V282.275H871.764V269.932Z" fill="black"/></g><path id="Rectangle 2134" opacity="0.5" d="M871.764 183.676H821.888V214.785H871.764V183.676Z" fill="#0056D3"/><path id="Rectangle 2135" opacity="0.1" d="M874.729 215.647H818.924V221.08H874.729V215.647Z" fill="black"/><path id="Rectangle 2136" d="M874.729 215.044H818.924V220.477H874.729V215.044Z" fill="#535461"/><g id="Group 6774" opacity="0.1"><path id="Rectangle 2137" opacity="0.1" d="M871.764 181.317H821.888V193.66H871.764V181.317Z" fill="black"/></g><path id="Rectangle 2138" opacity="0.5" d="M696.934 183.676H647.058V214.785H696.934V183.676Z" fill="#0056D3"/><path id="Rectangle 2139" opacity="0.1" d="M699.899 215.647H644.094V221.08H699.899V215.647Z" fill="black"/><path id="Rectangle 2140" d="M699.899 215.044H644.094V220.477H699.899V215.044Z" fill="#535461"/><g id="Group 6775" opacity="0.1"><path id="Rectangle 2141" opacity="0.1" d="M696.934 181.317H647.058V193.66H696.934V181.317Z" fill="black"/></g><g id="Group 6776" opacity="0.7"><path id="Path 11368" opacity="0.7" d="M819.493 56.528L758.585 9.42L699.62 56.5L694.993 50.716L758.513 0L824.026 50.672L819.493 56.528Z" fill="url(#paint14_linear_307_2)"/></g><path id="Rectangle 2142" opacity="0.1" d="M704.588 145.002H638.909V145.746H704.588V145.002Z" fill="black"/><path id="Rectangle 2143" opacity="0.1" d="M879.913 146.204H813.491V146.948H879.913V146.204Z" fill="black"/><path id="Rectangle 2144" d="M730.523 5.082H713.233V40.643H730.523V5.082Z" fill="#535461"/><g id="Group 6777" opacity="0.7"><path id="Path 11369" opacity="0.7" d="M813.739 350.94H703.111V111.867L758.905 109.688L813.739 111.867V350.94Z" fill="url(#paint15_linear_307_2)"/></g><path id="Path 11370" d="M812.252 350.94H704.588V58.174L758.42 8.78999L813.244 59.99L812.252 350.94Z" fill="white"/><path id="Rectangle 2145" d="M772.002 305.505H744.838V350.94H772.002V305.505Z" fill="#535461"/><path id="Rectangle 2146" opacity="0.1" d="M786.328 246.851H730.523V252.284H786.328V246.851Z" fill="black"/><path id="Rectangle 2147" opacity="0.5" d="M783.363 215.439H733.487V246.548H783.363V215.439Z" fill="#0056D3"/><path id="Rectangle 2148" d="M786.328 246.249H730.523V251.682H786.328V246.249Z" fill="#535461"/><g id="Group 6778" opacity="0.1"><path id="Rectangle 2149" opacity="0.1" d="M783.363 212.671H733.487V225.014H783.363V212.671Z" fill="black"/></g><path id="Rectangle 2150" opacity="0.5" d="M783.363 140.024H733.487V171.133H783.363V140.024Z" fill="#0056D3"/><path id="Rectangle 2151" d="M786.328 172.128H730.523V177.561H786.328V172.128Z" fill="#535461"/><g id="Group 6779" opacity="0.1"><path id="Rectangle 2152" opacity="0.1" d="M783.363 138.225H733.487V150.568H783.363V138.225Z" fill="black"/></g><path id="Rectangle 2153" opacity="0.5" d="M783.363 64.597H733.487V95.706H783.363V64.597Z" fill="#0056D3"/><path id="Rectangle 2154" d="M786.328 98.008H730.523V103.441H786.328V98.008Z" fill="#535461"/><g id="Group 6780" opacity="0.1"><path id="Rectangle 2155" opacity="0.1" d="M783.363 63.767H733.487V76.11H783.363V63.767Z" fill="black"/></g><path id="Path 11371" d="M819.493 58.263L758.585 11.145L699.62 58.222L694.993 52.438L758.513 1.72501L824.026 52.396L819.493 58.263Z" fill="#0056D3"/><path id="Ellipse 645" d="M768.057 330.19C769.147 330.19 770.03 329.307 770.03 328.217C770.03 327.127 769.147 326.244 768.057 326.244C766.967 326.244 766.084 327.127 766.084 328.217C766.084 329.307 766.967 330.19 768.057 330.19Z" fill="#E0E0E0"/></g></g></g><defs><linearGradient id="paint0_linear_307_2" x1="381.555" y1="352.076" x2="381.555" y2="195.114" gradientUnits="userSpaceOnUse"><stop stop-color="#808080" stop-opacity="0.251"/><stop offset="0.54" stop-color="#808080" stop-opacity="0.122"/><stop offset="1" stop-color="#808080" stop-opacity="0.102"/></linearGradient><linearGradient id="paint1_linear_307_2" x1="324.831" y1="146.777" x2="360.17" y2="128.871" gradientUnits="userSpaceOnUse"><stop stop-color="#808080" stop-opacity="0.251"/><stop offset="0.54" stop-color="#808080" stop-opacity="0.122"/><stop offset="1" stop-color="#808080" stop-opacity="0.102"/></linearGradient><linearGradient id="paint2_linear_307_2" x1="268.706" y1="221.552" x2="268.706" y2="169.332" gradientUnits="userSpaceOnUse"><stop stop-color="#808080" stop-opacity="0.251"/><stop offset="0.54" stop-color="#808080" stop-opacity="0.122"/><stop offset="1" stop-color="#808080" stop-opacity="0.102"/></linearGradient><linearGradient id="paint3_linear_307_2" x1="492.152" y1="221.482" x2="492.152" y2="168.666" gradientUnits="userSpaceOnUse"><stop stop-color="#808080" stop-opacity="0.251"/><stop offset="0.54" stop-color="#808080" stop-opacity="0.122"/><stop offset="1" stop-color="#808080" stop-opacity="0.102"/></linearGradient><linearGradient id="paint4_linear_307_2" x1="381.682" y1="157.256" x2="381.682" y2="88.551" gradientUnits="userSpaceOnUse"><stop stop-color="#808080" stop-opacity="0.251"/><stop offset="0.54" stop-color="#808080" stop-opacity="0.122"/><stop offset="1" stop-color="#808080" stop-opacity="0.102"/></linearGradient><linearGradient id="paint5_linear_307_2" x1="380.057" y1="350.278" x2="380.057" y2="184.308" gradientUnits="userSpaceOnUse"><stop stop-color="#808080" stop-opacity="0.251"/><stop offset="0.54" stop-color="#808080" stop-opacity="0.122"/><stop offset="1" stop-color="#808080" stop-opacity="0.102"/></linearGradient><linearGradient id="paint6_linear_307_2" x1="67.5585" y1="353.367" x2="67.5585" y2="235.633" gradientUnits="userSpaceOnUse"><stop stop-color="#808080" stop-opacity="0.251"/><stop offset="0.54" stop-color="#808080" stop-opacity="0.122"/><stop offset="1" stop-color="#808080" stop-opacity="0.102"/></linearGradient><linearGradient id="paint7_linear_307_2" x1="27.288" y1="204.406" x2="53.2046" y2="191.269" gradientUnits="userSpaceOnUse"><stop stop-color="#808080" stop-opacity="0.251"/><stop offset="0.54" stop-color="#808080" stop-opacity="0.122"/><stop offset="1" stop-color="#808080" stop-opacity="0.102"/></linearGradient><linearGradient id="paint8_linear_307_2" x1="18.488" y1="352.044" x2="137.541" y2="255.607" gradientUnits="userSpaceOnUse"><stop stop-color="#808080" stop-opacity="0.251"/><stop offset="0.54" stop-color="#808080" stop-opacity="0.122"/><stop offset="1" stop-color="#808080" stop-opacity="0.102"/></linearGradient><linearGradient id="paint9_linear_307_2" x1="68.97" y1="213.123" x2="68.97" y2="162.744" gradientUnits="userSpaceOnUse"><stop stop-color="#808080" stop-opacity="0.251"/><stop offset="0.54" stop-color="#808080" stop-opacity="0.122"/><stop offset="1" stop-color="#808080" stop-opacity="0.102"/></linearGradient><linearGradient id="paint10_linear_307_2" x1="759.411" y1="352.417" x2="759.411" y2="146.726" gradientUnits="userSpaceOnUse"><stop stop-color="#808080" stop-opacity="0.251"/><stop offset="0.54" stop-color="#808080" stop-opacity="0.122"/><stop offset="1" stop-color="#808080" stop-opacity="0.102"/></linearGradient><linearGradient id="paint11_linear_307_2" x1="712.737" y1="40.643" x2="741.813" y2="25.9094" gradientUnits="userSpaceOnUse"><stop stop-color="#808080" stop-opacity="0.251"/><stop offset="0.54" stop-color="#808080" stop-opacity="0.122"/><stop offset="1" stop-color="#808080" stop-opacity="0.102"/></linearGradient><linearGradient id="paint12_linear_307_2" x1="619.894" y1="138.66" x2="652.538" y2="67.75" gradientUnits="userSpaceOnUse"><stop stop-color="#808080" stop-opacity="0.251"/><stop offset="0.54" stop-color="#808080" stop-opacity="0.122"/><stop offset="1" stop-color="#808080" stop-opacity="0.102"/></linearGradient><linearGradient id="paint13_linear_307_2" x1="803.607" y1="139.81" x2="836.813" y2="68.3073" gradientUnits="userSpaceOnUse"><stop stop-color="#808080" stop-opacity="0.251"/><stop offset="0.54" stop-color="#808080" stop-opacity="0.122"/><stop offset="1" stop-color="#808080" stop-opacity="0.102"/></linearGradient><linearGradient id="paint14_linear_307_2" x1="759.509" y1="56.528" x2="759.509" y2="0" gradientUnits="userSpaceOnUse"><stop stop-color="#808080" stop-opacity="0.251"/><stop offset="0.54" stop-color="#808080" stop-opacity="0.122"/><stop offset="1" stop-color="#808080" stop-opacity="0.102"/></linearGradient><linearGradient id="paint15_linear_307_2" x1="758.425" y1="350.94" x2="758.425" y2="109.688" gradientUnits="userSpaceOnUse"><stop stop-color="#808080" stop-opacity="0.251"/><stop offset="0.54" stop-color="#808080" stop-opacity="0.122"/><stop offset="1" stop-color="#808080" stop-opacity="0.102"/></linearGradient><clipPath id="clip0_307_2"><rect width="897.193" height="353.367" fill="white"/></clipPath></defs><style> @keyframes translateX { 0%, 100% { transform: translateX(0px); } 50% { transform: translateX(4px); } } @keyframes translateXR { 0%, 100% { transform: translateX(0px); } 50% { transform: translateX(-4px); } }</style></svg>