<svg xmlns="http://www.w3.org/2000/svg" width="10.788" height="20" xmlns:v="https://vecta.io/nano"><path d="M3 11.289H.526c-.4 0-.526-.15-.526-.526V7.735c0-.4.15-.526.526-.526H3v-2.2a5.56 5.56 0 0 1 .676-2.829C4.172 1.315 4.963.658 5.904.328A5.57 5.57 0 0 1 7.831.003h2.453c.35 0 .5.15.5.5v2.854c0 .35-.15.5-.5.5l-2.028.025A.9.9 0 0 0 7.23 4.908v2.253h2.9c.4 0 .551.15.551.551v3.029c0 .4-.125.526-.551.526h-2.9v8.16c0 .426-.125.576-.576.576H3.529c-.375 0-.526-.15-.526-.526v-8.188z" fill="#fff"/></svg>