<svg xmlns="http://www.w3.org/2000/svg" width="20.264" height="20" xmlns:v="https://vecta.io/nano"><path d="M14.384 0H5.89C2.2 0 0 2.17 0 5.81v8.37C0 17.83 2.2 20 5.89 20h8.485c3.69 0 5.89-2.17 5.89-5.81V5.81C20.274 2.17 18.074 0 14.384 0zm-4.247 13.88A3.88 3.88 0 1 1 14.07 10a3.911 3.911 0 0 1-3.933 3.88zm6-9a1.153 1.153 0 0 1-.213.33 1.173 1.173 0 0 1-.335.21 1.021 1.021 0 0 1-.385.08 1.01 1.01 0 0 1-.72-.29 1.153 1.153 0 0 1-.213-.33.931.931 0 0 1 0-.76.978.978 0 0 1 1.125-.6.618.618 0 0 1 .193.06.772.772 0 0 1 .182.09 1.593 1.593 0 0 1 .152.12 1.031 1.031 0 0 1 .213.33.931.931 0 0 1 0 .76z" fill="#fff"/></svg>