<svg xmlns="http://www.w3.org/2000/svg" width="24.914" height="20" xmlns:v="https://vecta.io/nano"><path d="M24.914 2.366a10.59 10.59 0 0 1-2.927.8c1.073-.618 1.873-1.618 2.242-2.8-1.007.582-2.1.999-3.239 1.234A5.16 5.16 0 0 0 17.253 0c-2.801-.017-5.086 2.237-5.107 5.038-.006.383.036.765.125 1.137C8.185 5.99 4.369 4.081 1.771.922A5.02 5.02 0 0 0 3.328 7.65c-.805-.015-1.595-.226-2.3-.614a5.11 5.11 0 0 0 4.08 5.008 5.68 5.68 0 0 1-2.3.092 5.12 5.12 0 0 0 4.765 3.5A10.39 10.39 0 0 1 0 17.727 14.55 14.55 0 0 0 7.848 20 14.3 14.3 0 0 0 22.36 5.684c.005-.215-.005-.431-.031-.645a10.06 10.06 0 0 0 2.585-2.673z" fill="#fff"/></svg>