<svg width="622" height="487" viewBox="0 0 622 487" fill="none" xmlns="http://www.w3.org/2000/svg"><g id="undraw_steps_re_odoy"><path id="Path 11375" d="M494.38 448.813C494.488 461.084 495.387 473.335 497.071 485.49C497.13 485.917 497.194 486.344 497.253 486.771L612.168 486.129C612.505 485.705 612.837 485.276 613.159 484.842C614.232 483.405 615.237 481.928 616.159 480.399C620.596 473.035 622.627 464.413 620.591 458.464L620.555 458.372C620.116 457.069 619.424 455.866 618.518 454.832C613.877 449.608 604.494 450.479 595.979 454.695C603.616 446.335 609.698 435.786 610.16 426.37C610.613 417.185 605.811 410.624 600.602 405.048C600.431 404.864 600.26 404.685 600.089 404.505C600.006 404.413 599.918 404.326 599.835 404.234C595.771 399.985 591.035 395.796 584.175 396.303C576.654 396.86 568.314 403.16 562.468 410.503C556.622 417.846 552.736 426.173 548.797 434.303C544.858 442.433 540.587 450.767 534.259 457.715C542.83 446.874 549.74 434.54 552.293 422.543C554.846 410.546 552.599 399.025 544.961 393.376C542.642 391.714 539.958 390.631 537.135 390.218C536.805 390.163 536.471 390.118 536.135 390.08C529.064 389.28 520.621 391.721 513.435 397.567C505.524 404.004 500.035 413.546 497.311 422.604C494.587 431.662 494.292 440.383 494.38 448.813Z" fill="#F2F2F2"/><path id="Path 11376" d="M569.565 486.366L571.765 486.354C572.462 485.917 573.162 485.486 573.865 485.061C574.301 484.786 574.742 484.521 575.183 484.251C582.472 479.8 589.805 475.53 597.183 471.441C604.561 467.352 611.971 463.449 619.414 459.731C619.611 459.645 619.772 459.493 619.869 459.3C619.966 459.108 619.992 458.888 619.943 458.678C619.935 458.65 619.922 458.625 619.906 458.601C619.806 458.406 619.57 458.325 619.231 458.492C618.318 458.95 617.399 459.408 616.485 459.876C609.018 463.654 601.583 467.621 594.178 471.776C586.773 475.931 579.417 480.268 572.109 484.787C571.955 484.881 571.801 484.979 571.647 485.073L569.565 486.366Z" fill="white"/><path id="Path 11377" d="M541.233 486.524L542.592 486.516C542.899 486.087 543.2 485.658 543.506 485.229C550.706 475.132 557.906 465.034 565.106 454.937C576.893 438.404 588.676 421.873 600.455 405.345C600.525 405.256 600.577 405.154 600.608 405.045C600.708 404.679 600.44 404.464 600.095 404.502C599.95 404.523 599.811 404.574 599.687 404.653C599.563 404.732 599.457 404.836 599.377 404.959C592.769 414.23 586.162 423.496 579.557 432.759L544.386 482.098C543.64 483.142 542.895 484.191 542.149 485.235C541.841 485.667 541.533 486.096 541.233 486.524Z" fill="white"/><path id="Path 11378" d="M510.961 478.634C511.03 480.924 511.182 483.177 511.38 485.41C511.419 485.837 511.457 486.264 511.495 486.691L512.921 486.683C512.877 486.256 512.834 485.829 512.795 485.402C512.495 482.177 512.28 478.915 512.251 475.564C512.213 466.275 513.117 457.006 514.951 447.9C516.902 438.095 519.702 428.479 523.321 419.16C527.118 409.331 531.697 399.822 537.012 390.724C537.112 390.576 537.157 390.397 537.138 390.219C537.079 389.813 536.538 389.692 536.138 390.081C536.06 390.157 535.992 390.244 535.938 390.339C535.281 391.472 534.635 392.606 534.001 393.739C528.883 402.887 524.502 412.429 520.901 422.274C517.47 431.624 514.86 441.255 513.101 451.058C511.453 460.153 510.741 469.392 510.975 478.632L510.961 478.634Z" fill="white"/><path id="Path 11380" d="M16.216 262.309H454.034C458.333 262.304 462.455 260.594 465.495 257.555C468.535 254.515 470.245 250.393 470.25 246.094V16.215C470.245 11.9159 468.535 7.7943 465.495 4.75446C462.455 1.71461 458.333 0.00476385 454.034 0H16.216C11.9169 0.00476385 7.79519 1.71461 4.75516 4.75446C1.71513 7.7943 0.00502898 11.9159 0 16.215V246.093C0.00476435 250.392 1.71476 254.514 4.75482 257.554C7.79488 260.594 11.9167 262.304 16.216 262.309V262.309ZM454.034 1.909C457.827 1.91323 461.464 3.42203 464.147 6.10439C466.829 8.78674 468.338 12.4236 468.342 16.217V246.093C468.338 249.886 466.829 253.523 464.147 256.206C461.464 258.888 457.827 260.397 454.034 260.401H16.216C12.4226 260.397 8.78575 258.888 6.10339 256.206C3.42104 253.523 1.91222 249.886 1.90799 246.093V16.215C1.91222 12.4216 3.42104 8.78474 6.10339 6.10239C8.78575 3.42003 12.4226 1.91123 16.216 1.907L454.034 1.909Z" fill="#3F3D56"/><path id="Path 11381" d="M305.233 201.262H417.792C422.091 201.257 426.212 199.547 429.252 196.507C432.292 193.467 434.002 189.346 434.007 185.047V72.492C434.002 68.193 432.292 64.0716 429.252 61.0318C426.212 57.992 422.091 56.282 417.792 56.277H305.233C300.934 56.282 296.813 57.992 293.773 61.0318C290.733 64.0716 289.023 68.193 289.018 72.492V185.047C289.023 189.346 290.733 193.468 293.773 196.508C296.813 199.548 300.935 201.258 305.234 201.263L305.233 201.262ZM417.792 58.185C421.584 58.1914 425.219 59.701 427.899 62.3829C430.58 65.0648 432.088 68.7001 432.092 72.492V185.047C432.088 188.839 430.58 192.474 427.899 195.156C425.219 197.838 421.584 199.348 417.792 199.354H305.233C301.44 199.35 297.803 197.841 295.12 195.159C292.438 192.476 290.929 188.839 290.925 185.046V72.492C290.929 68.6986 292.438 65.0618 295.12 62.3794C297.803 59.6971 301.44 58.1882 305.233 58.184L417.792 58.185Z" fill="#CCCCCC"/><path id="Path 11382" d="M27.672 117.323H244.196C246.22 117.323 248.161 116.519 249.592 115.088C251.023 113.657 251.827 111.716 251.827 109.692C251.827 107.668 251.023 105.727 249.592 104.296C248.161 102.865 246.22 102.061 244.196 102.061H27.672C25.6481 102.061 23.7072 102.865 22.2761 104.296C20.845 105.727 20.041 107.668 20.041 109.692C20.041 111.716 20.845 113.657 22.2761 115.088C23.7072 116.519 25.6481 117.323 27.672 117.323Z" fill="#CCCCCC"/><path id="translate_3" style="transform-origin: center; transform-box: fill-box; animation: translateX 1s linear infinite reverse;" d="M137.366 84.892H244.197C246.221 84.892 248.162 84.088 249.593 82.6569C251.024 81.2258 251.828 79.2849 251.828 77.261C251.828 75.2371 251.024 73.2961 249.593 71.8651C248.162 70.434 246.221 69.63 244.197 69.63H137.366C135.342 69.63 133.401 70.434 131.97 71.8651C130.539 73.2961 129.735 75.2371 129.735 77.261C129.735 79.2849 130.539 81.2258 131.97 82.6569C133.401 84.088 135.342 84.892 137.366 84.892V84.892Z" fill="#CCCCCC"/><path id="translate_2" style="transform-origin: center; transform-box: fill-box; animation: translateXR 3s linear infinite reverse;" d="M27.672 181.231H244.196C246.22 181.231 248.161 180.427 249.592 178.996C251.023 177.565 251.827 175.624 251.827 173.6C251.827 171.576 251.023 169.635 249.592 168.204C248.161 166.773 246.22 165.969 244.196 165.969H27.672C25.6481 165.969 23.7072 166.773 22.2761 168.204C20.845 169.635 20.041 171.576 20.041 173.6C20.041 175.624 20.845 177.565 22.2761 178.996C23.7072 180.427 25.6481 181.231 27.672 181.231Z" fill="#CCCCCC"/><path id="translate_1" style="transform-origin: center; transform-box: fill-box; animation: translateX 2s linear infinite reverse;" d="M137.366 148.8H244.197C246.221 148.8 248.162 147.996 249.593 146.565C251.024 145.134 251.828 143.193 251.828 141.169C251.828 139.145 251.024 137.204 249.593 135.773C248.162 134.342 246.221 133.538 244.197 133.538H137.366C135.342 133.538 133.401 134.342 131.97 135.773C130.539 137.204 129.735 139.145 129.735 141.169C129.735 143.193 130.539 145.134 131.97 146.565C133.401 147.996 135.342 148.8 137.366 148.8Z" fill="#CCCCCC"/><path id="Path 11386" d="M294.201 196.541C294.327 196.541 294.452 196.516 294.569 196.467C294.686 196.419 294.791 196.347 294.88 196.257L428.054 61.288C428.146 61.1998 428.22 61.094 428.271 60.9768C428.322 60.8595 428.348 60.7333 428.349 60.6056C428.35 60.4779 428.326 60.3513 428.277 60.2332C428.228 60.1152 428.156 60.0082 428.065 59.9185C427.974 59.8288 427.866 59.7583 427.747 59.7112C427.629 59.664 427.502 59.6412 427.374 59.644C427.246 59.6469 427.121 59.6753 427.004 59.7277C426.888 59.7801 426.783 59.8553 426.696 59.949L293.522 194.918C293.39 195.052 293.3 195.222 293.264 195.407C293.229 195.591 293.248 195.782 293.321 195.956C293.393 196.13 293.516 196.278 293.672 196.382C293.829 196.486 294.013 196.542 294.201 196.542V196.541Z" fill="#CCCCCC"/><path id="Path 11389" d="M613.416 486.677H326.307C326.054 486.677 325.811 486.576 325.632 486.398C325.454 486.219 325.353 485.976 325.353 485.723C325.353 485.47 325.454 485.227 325.632 485.048C325.811 484.869 326.054 484.769 326.307 484.769H613.417C613.67 484.769 613.913 484.869 614.092 485.048C614.27 485.227 614.371 485.47 614.371 485.723C614.371 485.976 614.27 486.219 614.092 486.398C613.913 486.576 613.67 486.677 613.417 486.677H613.416Z" fill="#3F3D56"/><path id="Path 11387" d="M428.818 196.542C429.006 196.542 429.19 196.486 429.347 196.382C429.503 196.278 429.625 196.13 429.698 195.956C429.771 195.782 429.79 195.591 429.754 195.407C429.719 195.222 429.629 195.052 429.497 194.918L296.327 59.949C296.239 59.8578 296.135 59.7849 296.019 59.7346C295.903 59.6842 295.778 59.6574 295.652 59.6557C295.525 59.654 295.4 59.6774 295.283 59.7246C295.165 59.7717 295.059 59.8417 294.969 59.9305C294.879 60.0193 294.807 60.1251 294.758 60.2417C294.71 60.3583 294.685 60.4835 294.685 60.6098C294.685 60.7362 294.71 60.8614 294.759 60.9779C294.808 61.0945 294.879 61.2003 294.969 61.289L428.139 196.258C428.228 196.348 428.333 196.42 428.45 196.469C428.566 196.517 428.692 196.542 428.818 196.542Z" fill="#CCCCCC"/><g id="man" style="transform-origin: center; transform-box: fill-box; animation: translateY 2s linear infinite reverse;"><path id="Path 11390" d="M434.161 475.755H422.467L416.904 430.649H434.163L434.161 475.755Z" fill="#A0616A"/><path id="Path 11391" d="M399.918 486.614H436.671V472.414H414.118C410.352 472.414 406.74 473.91 404.077 476.573C401.414 479.236 399.918 482.848 399.918 486.614V486.614Z" fill="#2F2E41"/><path id="Path 11392" d="M519.011 462.508L508.375 467.367L484.575 428.65L500.275 421.48L519.011 462.508Z" fill="#A0616A"/><path id="Path 11393" d="M492.374 486.615L525.805 471.346L519.905 458.429L499.391 467.799C495.966 469.363 493.302 472.225 491.986 475.753C490.67 479.282 490.81 483.189 492.374 486.615H492.374Z" fill="#2F2E41"/><path id="Path 11394" d="M484.957 323.669C486.077 322.826 486.999 321.747 487.658 320.509C488.316 319.271 488.695 317.904 488.768 316.503C488.841 315.103 488.606 313.704 488.079 312.404C487.553 311.104 486.748 309.936 485.721 308.981L499.472 277.791L482.008 280.751L471.628 309.921C470.139 311.753 469.373 314.067 469.476 316.425C469.579 318.783 470.543 321.022 472.186 322.716C473.829 324.411 476.036 325.445 478.39 325.622C480.744 325.798 483.081 325.105 484.958 323.674L484.957 323.669Z" fill="#A0616A"/><path id="Path 11395" d="M437.681 460.057L448.9 362.074C448.99 361.285 449.358 360.555 449.938 360.013C450.518 359.471 451.272 359.153 452.065 359.117C452.857 359.081 453.637 359.329 454.264 359.816C454.891 360.303 455.324 360.997 455.485 361.774L461.047 388.574C461.126 388.953 461.255 389.32 461.433 389.664L493.991 452.97C494.47 453.902 495.274 454.625 496.25 455.006C497.226 455.386 498.308 455.396 499.291 455.034L510.612 450.863C511.146 450.666 511.636 450.366 512.052 449.978C512.469 449.59 512.804 449.124 513.039 448.605C513.273 448.087 513.403 447.527 513.419 446.958C513.435 446.389 513.338 445.823 513.133 445.292L486.633 376.565C486.493 376.202 486.417 375.816 486.41 375.427L485.056 303.664C485.036 302.612 484.63 301.604 483.916 300.832C483.201 300.059 482.228 299.576 481.181 299.473L410.846 292.605C410.224 292.544 409.596 292.62 409.006 292.827C408.416 293.034 407.878 293.367 407.43 293.804C406.983 294.24 406.636 294.769 406.414 295.354C406.192 295.938 406.101 296.564 406.146 297.188L417.961 459.875C418.043 460.955 418.529 461.965 419.323 462.703C420.116 463.441 421.159 463.852 422.242 463.856H433.413C434.467 463.857 435.484 463.471 436.271 462.77C437.058 462.069 437.56 461.104 437.681 460.057Z" fill="#2F2E41"/><path id="Ellipse 652" d="M438.98 169.988C451.919 169.988 462.408 159.499 462.408 146.56C462.408 133.621 451.919 123.132 438.98 123.132C426.041 123.132 415.552 133.621 415.552 146.56C415.552 159.499 426.041 169.988 438.98 169.988Z" fill="#A0616A"/><path id="Path 11396" d="M418.676 182.785C419.317 182.478 419.954 182.184 420.586 181.901C428.278 178.44 436.754 177.094 445.141 177.999C453.527 178.905 461.52 182.03 468.296 187.053C480.774 196.347 486.788 210.338 484.796 225.442C480.596 257.275 485.404 300.456 485.903 304.757C447.391 322.466 413.603 300.201 410.603 298.132L418.676 182.785Z" fill="#0056D3"/><path id="Path 11397" d="M486.952 304.347C487.654 304.236 488.317 303.951 488.881 303.52C489.445 303.088 489.893 302.523 490.185 301.875L509.852 258.317C510.589 256.688 510.914 254.902 510.799 253.117C510.684 251.333 510.133 249.604 509.194 248.082L485.052 208.91C484.069 207.093 482.416 205.732 480.445 205.116C478.473 204.5 476.339 204.678 474.497 205.612C472.654 206.545 471.25 208.162 470.581 210.116C469.913 212.07 470.034 214.208 470.918 216.075L488.776 253.575L477.039 293.3C476.831 294.01 476.81 294.762 476.977 295.483C477.143 296.203 477.493 296.869 477.991 297.416L483.116 303.007C483.517 303.446 484.005 303.796 484.549 304.036C485.093 304.276 485.681 304.4 486.275 304.4C486.502 304.4 486.728 304.382 486.952 304.347Z" fill="#0056D3"/><path id="Path 11398" opacity="0.2" d="M432.231 295.244L435.865 222.561L434.922 222.438L418.584 299.322H427.944C429.046 299.323 430.105 298.9 430.903 298.141C431.701 297.381 432.177 296.344 432.231 295.244Z" fill="black"/><path id="Path 11399" d="M419.284 318.436C420.205 317.379 420.883 316.132 421.27 314.785C421.657 313.437 421.744 312.021 421.525 310.636C421.306 309.251 420.785 307.931 420.001 306.769C419.216 305.607 418.186 304.631 416.984 303.91L423.955 270.545L407.486 277.066L403.391 307.75C402.314 309.851 402.046 312.274 402.636 314.559C403.226 316.845 404.634 318.835 406.593 320.152C408.552 321.469 410.926 322.021 413.265 321.705C415.605 321.389 417.747 320.226 419.286 318.436H419.284Z" fill="#A0616A"/><path id="Path 11400" d="M422.575 295.761L436.338 204.008L436.351 203.921L433.693 191.679C433.031 188.609 431.272 185.886 428.745 184.021C426.219 182.155 423.098 181.276 419.97 181.547C416.841 181.818 413.918 183.221 411.75 185.493C409.582 187.765 408.317 190.75 408.193 193.888L404.063 293.834C404.022 294.919 404.392 295.98 405.099 296.804C405.807 297.627 406.799 298.154 407.878 298.277L417.86 299.386C418.021 299.404 418.182 299.413 418.344 299.413C419.371 299.413 420.364 299.044 421.142 298.373C421.919 297.701 422.429 296.772 422.578 295.756L422.575 295.761Z" fill="#0056D3"/><path id="Path 11401" d="M448.608 167.835C451.795 167.808 454.908 166.879 457.589 165.155C460.27 163.432 462.407 160.985 463.755 158.097C465.927 153.503 467.133 149.844 467.342 147.219C467.902 140.168 463.918 129.087 458.642 123.019C452.853 116.365 443.692 115.437 434.831 114.54C432.41 114.295 429.907 114.04 427.538 113.673C425.505 113.357 422.975 112.964 420.824 113.762C420.202 113.989 419.633 114.341 419.151 114.796C418.67 115.251 418.286 115.8 418.024 116.408C417.94 116.622 417.812 116.816 417.65 116.978C417.488 117.141 417.294 117.268 417.081 117.353C416.897 117.424 416.7 117.455 416.503 117.446C416.306 117.437 416.113 117.387 415.936 117.299C415.576 117.116 415.179 117.021 414.775 117.021C414.372 117.021 413.974 117.116 413.614 117.299C413.296 117.459 413.021 117.691 412.81 117.978C412.599 118.265 412.46 118.597 412.402 118.948C412.364 119.189 412.289 119.423 412.18 119.641C411.994 119.98 411.739 120.276 411.431 120.509C411.123 120.742 410.769 120.908 410.392 120.994C409.817 121.122 409.309 121.456 408.963 121.933C408.617 122.41 408.458 122.997 408.514 123.583C408.657 124.783 408.714 126.083 408.776 127.341C408.997 132.067 409.225 136.953 413.976 136.875C415.191 136.825 416.394 136.612 417.553 136.244C419.274 135.766 420.633 135.387 422.465 136.529C425.28 138.284 425.74 141.953 426.146 145.19L426.217 145.756C426.691 149.456 428.647 153.914 432.603 154.286C433.859 154.327 435.11 154.11 436.279 153.649C437.481 153.117 438.815 152.957 440.109 153.189C442.281 153.809 443.327 156.404 443.237 158.647C443.179 159.565 443.061 160.479 442.885 161.382C442.566 162.813 442.465 164.283 442.585 165.744C442.698 166.633 443.719 167.219 445.798 167.587C446.726 167.752 447.666 167.835 448.608 167.835V167.835Z" fill="#2F2E41"/></g><path id="translate_4" style="transform-origin: center; transform-box: fill-box; animation: translateXRR 2s linear infinite reverse;" d="M34.339 234.17H95.386C97.3377 234.186 99.2734 233.815 101.081 233.08C102.889 232.344 104.533 231.257 105.919 229.883C107.305 228.509 108.405 226.873 109.155 225.072C109.906 223.27 110.293 221.337 110.293 219.386C110.293 217.434 109.906 215.501 109.155 213.699C108.405 211.898 107.305 210.263 105.919 208.888C104.533 207.514 102.889 206.427 101.081 205.691C99.2734 204.956 97.3377 204.585 95.386 204.601H34.339C32.3872 204.585 30.4516 204.956 28.6438 205.691C26.836 206.427 25.1917 207.514 23.8059 208.888C22.4201 210.263 21.3202 211.898 20.5695 213.699C19.8189 215.501 19.4324 217.434 19.4324 219.386C19.4324 221.337 19.8189 223.27 20.5695 225.072C21.3202 226.873 22.4201 228.509 23.8059 229.883C25.1917 231.257 26.836 232.344 28.6438 233.08C30.4516 233.815 32.3872 234.186 34.339 234.17V234.17Z" fill="#0056D3"/></g><style> @keyframes translateX { 0%, 100% { transform: translateX(0px); } 50% { transform: translateX(-2px); } } @keyframes translateXR { 0%, 100% { transform: translateX(0px); } 50% { transform: translateX(-4px); } } @keyframes translateXRR { 0%, 100% { transform: translateX(0px); } 50% { transform: translateX(5px); } } @keyframes translateY { 0%, 100% { transform: translateY(0px) translateX(0px); } 50% { transform: translateY(-10px) translateX(-10px); } }</style></svg>