<svg id="Group_7171" data-name="Group 7171" xmlns="http://www.w3.org/2000/svg" width="17.056" height="24.19" viewBox="0 0 17.056 24.19">
  <path id="Path_11675" data-name="Path 11675" d="M0,454.126a.709.709,0,0,0,.709.709H16.347a.709.709,0,0,0,.709-.709V452H0Zm0,0" transform="translate(0 -430.644)" fill="#6d8bb8" fill-rule="evenodd"/>
  <path id="Path_11676" data-name="Path 11676" d="M16.347,86H.709A.71.71,0,0,0,0,86.709v15.166H17.056V86.709A.71.71,0,0,0,16.347,86ZM5.769,98.573,4.375,99.966a.708.708,0,0,1-1,0L2.806,99.4a.709.709,0,0,1,1-1l.066.066.893-.893a.709.709,0,1,1,1,1Zm0-4.2L4.375,95.761a.708.708,0,0,1-1,0l-.567-.567a.709.709,0,0,1,1-1l.066.066.893-.893a.709.709,0,1,1,1,1Zm0-4.229L4.375,91.533a.708.708,0,0,1-1,0l-.567-.567a.709.709,0,0,1,1-1l.066.066.893-.893a.709.709,0,1,1,1,1Zm7.744,9.374H8.091a.709.709,0,0,1,0-1.417h5.422a.709.709,0,0,1,0,1.417Zm0-4.2H8.091a.709.709,0,1,1,0-1.417h5.422a.709.709,0,1,1,0,1.417Zm0-4.229H8.091a.709.709,0,1,1,0-1.417h5.422a.709.709,0,1,1,0,1.417Zm0,0" transform="translate(0 -81.937)" fill="#6d8bb8" fill-rule="evenodd"/>
  <path id="Path_11677" data-name="Path 11677" d="M34.725.709A.709.709,0,0,0,34.016,0H30.709A.709.709,0,0,0,30,.709V2.646h4.725Zm0,0" transform="translate(-28.583 0)" fill="#6d8bb8" fill-rule="evenodd"/>
  <path id="Path_11678" data-name="Path 11678" d="M235.725.709A.709.709,0,0,0,235.016,0h-3.307A.709.709,0,0,0,231,.709V2.646h4.725Zm0,0" transform="translate(-220.086 0)" fill="#6d8bb8" fill-rule="evenodd"/>
</svg>
