<svg id="Group_7170" data-name="Group 7170" xmlns="http://www.w3.org/2000/svg" width="18.056" height="21.065" viewBox="0 0 18.056 21.065">
  <g id="Group_7169" data-name="Group 7169">
    <g id="XMLID_1_">
      <path id="Path_11672" data-name="Path 11672" d="M728.414,7.657V9.105c-.088,0-.177-.005-.266-.005h-.782c-.089,0-.178,0-.266.005V7.657a.657.657,0,1,1,1.314,0Z" transform="translate(-718.729 -7)" fill="#6d8bb8"/>
      <path id="Path_11673" data-name="Path 11673" d="M134.756,209.8H116.7a3.045,3.045,0,0,1,1.637-2.471,1.831,1.831,0,0,0,.989-1.636v-5.781a6.02,6.02,0,0,1,6.012-6.012h.782a6.02,6.02,0,0,1,6.012,6.012v5.781a1.853,1.853,0,0,0,1,1.643A3.035,3.035,0,0,1,134.756,209.8Z" transform="translate(-116.7 -191.337)" fill="#6d8bb8"/>
      <path id="Path_11674" data-name="Path 11674" d="M603.2,1387h4.711a2.366,2.366,0,0,1-4.711,0Z" transform="translate(-596.528 -1368.074)" fill="#6d8bb8"/>
    </g>
  </g>
</svg>
