<svg id="project" xmlns="http://www.w3.org/2000/svg" width="18.775" height="18.777" viewBox="0 0 18.775 18.777">
  <path id="Path_11669" data-name="Path 11669" d="M17.872,9.847a1.111,1.111,0,0,1,0-.918l.7-1.54A2.282,2.282,0,0,0,17.3,4.308l-1.584-.595a1.109,1.109,0,0,1-.649-.649L14.47,1.48A2.281,2.281,0,0,0,11.389.2L9.849.9a1.114,1.114,0,0,1-.918,0L7.39.2A2.281,2.281,0,0,0,4.309,1.481L3.714,3.065a1.109,1.109,0,0,1-.649.649l-1.583.595A2.282,2.282,0,0,0,.206,7.389l.7,1.54a1.111,1.111,0,0,1,0,.918l-.7,1.54A2.282,2.282,0,0,0,1.48,14.469l1.584.595a1.109,1.109,0,0,1,.649.649L4.308,17.3a2.283,2.283,0,0,0,3.081,1.276l1.54-.7a1.108,1.108,0,0,1,.918,0l1.54.7A2.282,2.282,0,0,0,14.468,17.3l.595-1.584a1.109,1.109,0,0,1,.649-.649L17.3,14.47a2.281,2.281,0,0,0,1.276-3.081Zm-6.888,3.368a.873.873,0,0,1-.876.868H8.669a.9.9,0,0,1-.876-1.009v-.422h3.192Zm.634-2.316a1.679,1.679,0,0,0-.61.97H7.777a1.471,1.471,0,0,0-.571-.931A3.458,3.458,0,0,1,5.868,8.122,3.538,3.538,0,0,1,9.334,4.695a3.493,3.493,0,0,1,2.284,6.2Z" transform="translate(-0.001 0)" fill="#6d8bb8"/>
</svg>
