<svg id="talabaty" xmlns="http://www.w3.org/2000/svg" width="23.324" height="17.991" viewBox="0 0 23.324 17.991">
  <g id="Group_7173" data-name="Group 7173" transform="translate(0 0)">
    <g id="Group_7172" data-name="Group 7172" transform="translate(0 0)">
      <path id="Path_11679" data-name="Path 11679" d="M34.393,17.7l-5.152-5.152v-3.4a.767.767,0,0,0-1.534,0v1.865L24.073,7.376a.766.766,0,0,0-1.083,0l-4.756,4.756a.766.766,0,0,0,1.083,1.084L23.531,9l9.778,9.778A.767.767,0,0,0,34.393,17.7Z" transform="translate(-11.294 -7.151)" fill="#6d8bb8"/>
      <path id="Path_11680" data-name="Path 11680" d="M35.325,23.743,27.2,15.616a.765.765,0,0,0-1.083,0l-3.123,3.123a6.933,6.933,0,0,1,3.8,5.461,1.373,1.373,0,0,1,1.1,1.344v2.913A1.857,1.857,0,0,0,29.75,30.31h3.967a1.855,1.855,0,0,0,1.853-1.853V24.491a1.782,1.782,0,0,0-.034-.351A.764.764,0,0,0,35.325,23.743Z" transform="translate(-14.418 -12.319)" fill="#6d8bb8"/>
      <path id="Path_11681" data-name="Path 11681" d="M5.8,24.273a5.8,5.8,0,1,0,5.8,5.8A5.8,5.8,0,0,0,5.8,24.273Zm1.9,6.762H6.762v.942a.958.958,0,0,1-1.916,0v-.942H3.9a.958.958,0,0,1,0-1.916h.943v-.942a.958.958,0,0,1,1.916,0v.942H7.7a.958.958,0,0,1,0,1.916Z" transform="translate(0 -17.889)" fill="#6d8bb8"/>
    </g>
  </g>
</svg>
