<svg xmlns="http://www.w3.org/2000/svg" width="13.718" height="18.036" viewBox="0 0 13.718 18.036">
  <g id="user" transform="translate(-41.895)">
    <g id="Group_7190" data-name="Group 7190" transform="translate(41.895)">
      <path id="Path_11682" data-name="Path 11682" d="M108.166,8.821c2.005,0,3.631-1.975,3.631-4.41S111.263,0,108.166,0s-3.631,1.975-3.631,4.41S106.161,8.821,108.166,8.821Z" transform="translate(-101.307)" fill="#6d8bb8"/>
      <path id="Path_11683" data-name="Path 11683" d="M41.9,300.448c0-.148,0-.042,0,0Z" transform="translate(-41.895 -284.893)" fill="#6d8bb8"/>
      <path id="Path_11684" data-name="Path 11684" d="M308.085,301.621c0-.041,0-.282,0,0Z" transform="translate(-294.368 -285.95)" fill="#6d8bb8"/>
      <path id="Path_11685" data-name="Path 11685" d="M55.617,183.958c-.067-4.243-.621-5.452-4.862-6.218a2.979,2.979,0,0,1-3.977,0c-4.194.757-4.782,1.948-4.86,6.08-.006.337-.009.355-.01.316,0,.073,0,.209,0,.446,0,0,1.01,2.035,6.858,2.035s6.858-2.035,6.858-2.035c0-.152,0-.258,0-.33A2.724,2.724,0,0,1,55.617,183.958Z" transform="translate(-41.907 -168.581)" fill="#6d8bb8"/>
    </g>
  </g>
</svg>
