<svg xmlns="http://www.w3.org/2000/svg" width="93.702" height="95.999" viewBox="0 0 93.702 95.999">
  <g id="p" transform="translate(-0.82 -0.001)">
    <g id="Protection">
      <path id="Path_11412" data-name="Path 11412" d="M12.73,79.73a6.37,6.37,0,0,0-6.26,5.16,3.991,3.991,0,1,0-1.65,7.62h7.92a6.38,6.38,0,1,0,0-12.76Z" fill="#2ac58f"/>
      <path id="Path_11413" data-name="Path 11413" d="M12.67,11.8H26.93V34.87H12.67Z" fill="#ffab8a"/>
      <path id="Path_11414" data-name="Path 11414" d="M12.67,11.8v3.31h6.51a2.36,2.36,0,0,1,1.67,4l-8.18,8.16v7.59H17.2l9.73-9.74V11.8Z" fill="#ff8867"/>
      <path id="Path_11415" data-name="Path 11415" d="M84.24,46.14V92.49H12.67V46.96l36.2-36.18Z" fill="#ffb080"/>
      <path id="Path_11416" data-name="Path 11416" d="M80.27,51.43V86.52a2,2,0,0,1-2,2H18.65a2,2,0,0,1-2-2V52.25A8.8,8.8,0,0,1,19.22,46L46.78,18.48a3,3,0,0,1,4.17,0L77.69,45.21a8.76,8.76,0,0,1,2.58,6.22Z" fill="#ffd894"/>
      <path id="Path_11417" data-name="Path 11417" d="M16.64,48.61,48.87,16.4,16.64,48.63Z" fill="#ffb080"/>
      <path id="Path_11418" data-name="Path 11418" d="M80.27,47.79v.02L48.87,16.4Z" fill="#ffb080"/>
      <path id="Path_11419" data-name="Path 11419" d="M65.25,41.7H32.49A1.6,1.6,0,0,1,31.36,39L47.74,22.6a1.61,1.61,0,0,1,2.26,0L66.38,39a1.6,1.6,0,0,1-1.13,2.7Z" fill="#fff1ad"/>
      <path id="Path_11420" data-name="Path 11420" d="M51.92,30.14,49.48,27.7a.86.86,0,0,0-1.22,0l-2.44,2.44a.86.86,0,0,0,.61,1.47h4.88a.86.86,0,0,0,.61-1.47Z" fill="#fff"/>
      <path id="Path_11421" data-name="Path 11421" d="M93.66,47.68l-1.84,1.84a3,3,0,0,1-4.21,0L48.87,10.78,10.13,49.52a3,3,0,0,1-4.21,0L4.08,47.68a3,3,0,0,1,0-4.21L46.61.94a3.19,3.19,0,0,1,4.52,0l3.79,3.79L93.66,43.47a3,3,0,0,1,0,4.21Z" fill="#e66f49"/>
      <path id="Path_11422" data-name="Path 11422" d="M94.47,45a1.15,1.15,0,0,1-2,1C85,38.39,49.86,3.3,49.67,3.11a1.13,1.13,0,0,0-1.6,0c-.2.2-35.33,35.31-42.83,42.86a1.15,1.15,0,0,1-2-1,2.9,2.9,0,0,1,.81-1.53L46.61.94a3.19,3.19,0,0,1,4.52,0l3.79,3.79L93.66,43.47A2.94,2.94,0,0,1,94.47,45Z" fill="#ff974e"/>
      <path id="Path_11423" data-name="Path 11423" d="M51.84,57.64H76.68V92.49H51.84Z" fill="#f02f62"/>
      <rect id="Rectangle_2167" data-name="Rectangle 2167" width="26.96" height="18.89" rx="1.02" transform="translate(54.81 89.52) rotate(-90)" fill="#ff4d6c"/>
      <rect id="Rectangle_2168" data-name="Rectangle 2168" width="12.94" height="4.03" rx="0.58" transform="translate(57.79 65.54)" fill="#fff"/>
      <path id="Path_11424" data-name="Path 11424" d="M51.84,57.64H76.68v2.67H51.84Z" fill="#b92053"/>
      <path id="Path_11425" data-name="Path 11425" d="M45.08,57.64V74.49a1.38,1.38,0,0,1-1.38,1.39H21.63a1.39,1.39,0,0,1-1.39-1.39V57.64Z" fill="#cef0fc"/>
      <rect id="Rectangle_2169" data-name="Rectangle 2169" width="20.87" height="15.13" rx="1.06" transform="translate(22.23 59.2)" fill="#fffffc"/>
      <path id="Path_11426" data-name="Path 11426" d="M54,52.33H74.53a2.15,2.15,0,0,1,2.15,2.15v3.17H51.84V54.47A2.15,2.15,0,0,1,54,52.33Z" fill="#e16a3f"/>
      <path id="Path_11427" data-name="Path 11427" d="M55.8,54H72.72a1,1,0,0,1,1,1v2.63H54.81V55a1,1,0,0,1,.99-1Z" fill="#f5923f"/>
      <path id="Path_11428" data-name="Path 11428" d="M22.39,52.33H42.94a2.15,2.15,0,0,1,2.15,2.15v3.17H20.24V54.47A2.15,2.15,0,0,1,22.39,52.33Z" fill="#e16a3f"/>
      <path id="Path_11429" data-name="Path 11429" d="M24.2,54H41.12a1,1,0,0,1,1,1v2.63H23.21V55a1,1,0,0,1,.99-1Z" fill="#f5923f"/>
      <path id="Path_11430" data-name="Path 11430" d="M31.65,57.64h2.03V75.88H31.65Z" fill="#ff6a4e"/>
      <path id="Path_11431" data-name="Path 11431" d="M31.65,59.2h2.03V74.33H31.65Z" fill="#ff8d67"/>
      <path id="Path_11432" data-name="Path 11432" d="M31.65,64.94h2.03v3.65H31.65Z" fill="#ff6a4e"/>
      <path id="Path_11433" data-name="Path 11433" d="M20.24,65.75H45.08v2.03H20.24Z" fill="#ff6a4e"/>
      <path id="Path_11434" data-name="Path 11434" d="M22.11,65.75h21.1v2.03H22.11Z" fill="#ff8d67"/>
      <rect id="Rectangle_2170" data-name="Rectangle 2170" width="5.67" height="2.03" rx="1.01" transform="translate(29.82 65.75)" fill="#ffb585"/>
      <circle id="Ellipse_653" data-name="Ellipse 653" cx="2.06" cy="2.06" r="2.06" transform="translate(56.19 73.01)" fill="#405075"/>
      <rect id="Rectangle_2171" data-name="Rectangle 2171" width="6.84" height="20.05" rx="1.82" transform="translate(29.83 4.95) rotate(90)" fill="#ff5b49"/>
      <rect id="Rectangle_2172" data-name="Rectangle 2172" width="6.84" height="10.57" rx="1.82" transform="translate(25.09 4.95) rotate(90)" fill="#ff7449"/>
      <path id="Path_11435" data-name="Path 11435" d="M36.75,82H28.57a1,1,0,0,1,0-2h8.18a1,1,0,0,1,0,2Z" fill="#fffbc6"/>
      <path id="Path_11436" data-name="Path 11436" d="M82.48,96a23.76,23.76,0,0,1-12-20.67V69.12a4,4,0,0,0,4-4h16a4,4,0,0,0,4,4v6.21A23.75,23.75,0,0,1,82.48,96Z" fill="#27b9fc"/>
      <path id="Path_11437" data-name="Path 11437" d="M82.48,91.24a19.8,19.8,0,0,1-8-15.91V72.05a8.16,8.16,0,0,0,3-3H87.57a8.16,8.16,0,0,0,3,3v3.28a19.78,19.78,0,0,1-8.09,15.91Z" fill="#40e6fc"/>
      <path id="Path_11438" data-name="Path 11438" d="M80.5,82.89a1,1,0,0,1-.7-.29l-4.42-4.26a1.022,1.022,0,0,1,1.42-1.47l3.73,3.6,7.67-6.83a1.024,1.024,0,0,1,1.36,1.53l-8.38,7.46a1,1,0,0,1-.68.26Z" fill="#fff"/>
    </g>
  </g>
</svg>
