<svg xmlns="http://www.w3.org/2000/svg" width="95.477" height="95.479" viewBox="0 0 95.477 95.479">
  <g id="why" transform="translate(-0.005)">
    <path id="Path_11402" data-name="Path 11402" d="M61.729,14.172V36.55L42.149,56.13H26.541L16.135,66.479a2.671,2.671,0,0,1-3.021.615,2.789,2.789,0,0,1-1.734-2.573V55.85A14.153,14.153,0,0,1,.005,42.144V14.172A14.312,14.312,0,0,1,14.177,0H47.744A14.151,14.151,0,0,1,61.729,14.172Z" fill="#1689fc"/>
    <path id="Path_11403" data-name="Path 11403" d="M196.77,14.172V36.55L177.19,56.13H166V0h16.783A14.151,14.151,0,0,1,196.77,14.172Z" transform="translate(-135.041)" fill="#136ef1"/>
    <g id="Group_6815" data-name="Group 6815" transform="translate(22.568 11.375)">
      <path id="Path_11404" data-name="Path 11404" d="M156.6,213.792a2.8,2.8,0,1,1-2.8-2.8A2.77,2.77,0,0,1,156.6,213.792Z" transform="translate(-145.406 -183.023)" fill="#cae8f9"/>
      <path id="Path_11405" data-name="Path 11405" d="M137.783,69.39a8.346,8.346,0,0,1-3.356,6.713,5.671,5.671,0,0,0-2.238,4.475,2.8,2.8,0,0,1-5.594,0,11.323,11.323,0,0,1,4.476-8.951,2.8,2.8,0,1,0-4.476-2.238,2.8,2.8,0,1,1-5.594,0,8.392,8.392,0,0,1,16.783,0Z" transform="translate(-121 -60.998)" fill="#cae8f9"/>
    </g>
    <g id="Group_6816" data-name="Group 6816" transform="translate(30.96 11.375)">
      <path id="Path_11406" data-name="Path 11406" d="M168.8,213.793a2.77,2.77,0,0,1-2.8,2.8V211A2.77,2.77,0,0,1,168.8,213.793Z" transform="translate(-166.001 -183.024)" fill="#b7e0f6"/>
      <path id="Path_11407" data-name="Path 11407" d="M174.392,69.391a8.346,8.346,0,0,1-3.356,6.713,5.671,5.671,0,0,0-2.238,4.475,2.77,2.77,0,0,1-2.8,2.8V73.195a11.149,11.149,0,0,1,1.678-1.567A2.8,2.8,0,0,0,166,66.593V61A8.38,8.38,0,0,1,174.392,69.391Z" transform="translate(-166 -60.999)" fill="#b7e0f6"/>
    </g>
    <path id="Path_11408" data-name="Path 11408" d="M252.959,181H224.987A13.991,13.991,0,0,0,211,194.982v22.377a13.991,13.991,0,0,0,13.986,13.986h2.8v8.578a2.79,2.79,0,0,0,1.734,2.573,2.671,2.671,0,0,0,3.021-.615l6.434-6.564,3.972-3.972h10.014a14.151,14.151,0,0,0,14.172-13.986V194.982A14.152,14.152,0,0,0,252.959,181Z" transform="translate(-171.649 -147.243)" fill="#32d736"/>
    <path id="Path_11409" data-name="Path 11409" d="M389.155,194.982v22.377a14.151,14.151,0,0,1-14.172,13.986H364.969L361,235.317V181h13.986A14.151,14.151,0,0,1,389.155,194.982Z" transform="translate(-293.673 -147.243)" fill="#10bb67"/>
    <path id="Path_11410" data-name="Path 11410" d="M328.131,275.749l-15.944,15.944-.839.839a2.7,2.7,0,0,1-3.916,0l-5.594-5.594a2.769,2.769,0,1,1,3.916-3.916l3.637,3.58,2.8-2.8,12.028-11.972a2.769,2.769,0,1,1,3.915,3.916Z" transform="translate(-244.864 -220.458)" fill="#cae8f9"/>
    <path id="Path_11411" data-name="Path 11411" d="M376.941,275.749,361,291.693V283.8l12.028-11.972a2.769,2.769,0,1,1,3.916,3.916Z" transform="translate(-293.673 -220.458)" fill="#b7e0f6"/>
  </g>
</svg>
