<svg xmlns="http://www.w3.org/2000/svg" width="91.262" height="91.262" viewBox="0 0 91.262 91.262">
  <g id="g" transform="translate(-8 -8)">
    <g id="Group_6823" data-name="Group 6823" transform="translate(8 8)">
      <path id="Path_11439" data-name="Path 11439" d="M118.381,54.566V34.1a1.472,1.472,0,0,1,1.472-1.472h42.985v2.944H121.325v19h-2.944Zm42.413,37.5a1.472,1.472,0,0,1,0,2.944H138.608a1.468,1.468,0,0,1-1.048-.439l-3.9-3.9a1.472,1.472,0,0,1,2.082-2.082l3.473,3.473Zm-39.469.817h-2.944v20.469a1.472,1.472,0,0,0,1.472,1.472h43.813v-2.944H121.325Zm41.513-20.631a1.472,1.472,0,0,1,0,2.944H137.032a1.472,1.472,0,0,1,0-2.944Zm0-19.814H152.9a1.472,1.472,0,1,0,0,2.944h9.936a1.472,1.472,0,0,0,0-2.944Z" transform="translate(-98.071 -28.094)" fill="#a79ba7" fill-rule="evenodd"/>
      <g id="Group_6817" data-name="Group 6817" transform="translate(0 18.579)">
        <circle id="Ellipse_654" data-name="Ellipse 654" cx="22.004" cy="22.004" r="22.004" transform="translate(0 4.8)" fill="#fe646f"/>
        <path id="Path_11440" data-name="Path 11440" d="M120.97,135.065a22,22,0,1,1,0,44.008c-.5,0-1-.018-1.493-.052a22,22,0,0,0,0-43.9C119.97,135.083,120.468,135.065,120.97,135.065Z" transform="translate(-98.966 -130.265)" fill="#fd4755" fill-rule="evenodd"/>
        <circle id="Ellipse_655" data-name="Ellipse 655" cx="14.14" cy="14.14" r="14.14" transform="matrix(0.999, -0.036, 0.036, 0.999, 7.377, 13.162)" fill="#eceff1"/>
        <path id="Path_11441" data-name="Path 11441" d="M64.881,177.806c.335,0,.666.013,1,.035a14.14,14.14,0,0,0,0,28.209c-.329.023-.661.035-1,.035a14.14,14.14,0,0,1,0-28.28Z" transform="translate(-42.877 -165.142)" fill="#d1d1d6" fill-rule="evenodd"/>
        <circle id="Ellipse_656" data-name="Ellipse 656" cx="6.276" cy="6.276" r="6.276" transform="translate(15.322 32.615) rotate(-85.931)" fill="#fe646f"/>
        <path id="Path_11442" data-name="Path 11442" d="M99.757,220.546a6.276,6.276,0,1,0,1,12.473,6.276,6.276,0,0,1,0-12.394,6.314,6.314,0,0,0-1-.079Z" transform="translate(-77.753 -200.018)" fill="#fd4755" fill-rule="evenodd"/>
        <path id="Path_11443" data-name="Path 11443" d="M200.644,117.367l-7.721,7.721a.969.969,0,0,1-.913.269l-6.251-1.347-1.347-6.251a.97.97,0,0,1,.269-.913l7.721-7.721a.5.5,0,0,1,.838.247l1.269,5.889,5.889,1.269a.5.5,0,0,1,.247.838Z" transform="translate(-151.933 -108.978)" fill="#e3a76f" fill-rule="evenodd"/>
        <path id="Path_11444" data-name="Path 11444" d="M205.16,149.885l-7.721,7.721a.97.97,0,0,1-.913.269l-6.251-1.347-.353-1.637,5.977,1.288a.97.97,0,0,0,.913-.269l7.082-7.082,1.019.22a.5.5,0,0,1,.247.838Z" transform="translate(-156.449 -141.495)" fill="#c48958" fill-rule="evenodd"/>
        <path id="Path_11445" data-name="Path 11445" d="M146.188,121.279a1.45,1.45,0,0,1,0,2.044l-23.055,23.055a1.445,1.445,0,1,1-2.044-2.044l23.055-23.055A1.449,1.449,0,0,1,146.188,121.279Z" transform="translate(-99.937 -118.672)" fill="#837683" fill-rule="evenodd"/>
      </g>
      <g id="Group_6818" data-name="Group 6818" transform="translate(60.765)">
        <path id="Path_11446" data-name="Path 11446" d="M339.864,8h27.272a1.617,1.617,0,0,1,1.613,1.613v8.78a1.617,1.617,0,0,1-1.613,1.613H339.864a1.617,1.617,0,0,1-1.613-1.613V9.613A1.617,1.617,0,0,1,339.864,8Z" transform="translate(-338.251 -8)" fill="#8ac9fe" fill-rule="evenodd"/>
        <path id="Path_11447" data-name="Path 11447" d="M366.908,8h.227a1.617,1.617,0,0,1,1.613,1.613v8.78a1.617,1.617,0,0,1-1.613,1.613H339.864a1.617,1.617,0,0,1-1.613-1.613v-.227H365.3a1.617,1.617,0,0,0,1.613-1.613Z" transform="translate(-338.251 -8)" fill="#60b7ff" fill-rule="evenodd"/>
        <path id="Path_11448" data-name="Path 11448" d="M371.847,35.569a1.472,1.472,0,0,1,0-2.944h15.732a1.472,1.472,0,0,1,0,2.944Z" transform="translate(-364.464 -28.094)" fill="#fff" fill-rule="evenodd"/>
      </g>
      <g id="Group_6819" data-name="Group 6819" transform="translate(60.765 19.814)">
        <path id="Path_11449" data-name="Path 11449" d="M339.864,115.688h27.272a1.617,1.617,0,0,1,1.613,1.613v8.78a1.617,1.617,0,0,1-1.613,1.613H339.864a1.617,1.617,0,0,1-1.613-1.613V117.3A1.617,1.617,0,0,1,339.864,115.688Z" transform="translate(-338.251 -115.688)" fill="#ffe177" fill-rule="evenodd"/>
        <path id="Path_11450" data-name="Path 11450" d="M366.908,115.688h.227a1.617,1.617,0,0,1,1.613,1.613v8.78a1.617,1.617,0,0,1-1.613,1.613H339.864a1.617,1.617,0,0,1-1.613-1.613v-.227H365.3a1.617,1.617,0,0,0,1.613-1.613Z" transform="translate(-338.251 -115.688)" fill="#ffd064" fill-rule="evenodd"/>
        <path id="Path_11451" data-name="Path 11451" d="M371.847,143.257a1.472,1.472,0,0,1,0-2.944h15.732a1.472,1.472,0,0,1,0,2.944Z" transform="translate(-364.464 -135.782)" fill="#fff" fill-rule="evenodd"/>
      </g>
      <g id="Group_6820" data-name="Group 6820" transform="translate(60.765 39.628)">
        <path id="Path_11452" data-name="Path 11452" d="M339.864,223.376h27.272a1.617,1.617,0,0,1,1.613,1.613v8.78a1.617,1.617,0,0,1-1.613,1.613H339.864a1.617,1.617,0,0,1-1.613-1.613v-8.78A1.617,1.617,0,0,1,339.864,223.376Z" transform="translate(-338.251 -223.376)" fill="#6cf5c2" fill-rule="evenodd"/>
        <path id="Path_11453" data-name="Path 11453" d="M366.908,223.376h.227a1.617,1.617,0,0,1,1.613,1.613v8.78a1.617,1.617,0,0,1-1.613,1.613H339.864a1.617,1.617,0,0,1-1.613-1.613v-.227H365.3a1.617,1.617,0,0,0,1.613-1.613Z" transform="translate(-338.251 -223.376)" fill="#00e499" fill-rule="evenodd"/>
        <path id="Path_11454" data-name="Path 11454" d="M371.847,250.944a1.472,1.472,0,0,1,0-2.944h15.732a1.472,1.472,0,0,1,0,2.944Z" transform="translate(-364.464 -243.469)" fill="#fff" fill-rule="evenodd"/>
      </g>
      <g id="Group_6821" data-name="Group 6821" transform="translate(60.765 59.442)">
        <path id="Path_11455" data-name="Path 11455" d="M339.864,331.063h27.272a1.617,1.617,0,0,1,1.613,1.613v8.78a1.617,1.617,0,0,1-1.613,1.613H339.864a1.617,1.617,0,0,1-1.613-1.613v-8.78A1.617,1.617,0,0,1,339.864,331.063Z" transform="translate(-338.251 -331.063)" fill="#f2d1a5" fill-rule="evenodd"/>
        <path id="Path_11456" data-name="Path 11456" d="M366.908,331.063h.227a1.617,1.617,0,0,1,1.613,1.613v8.78a1.617,1.617,0,0,1-1.613,1.613H339.864a1.617,1.617,0,0,1-1.613-1.613v-.227H365.3a1.617,1.617,0,0,0,1.613-1.613Z" transform="translate(-338.251 -331.063)" fill="#ecba78" fill-rule="evenodd"/>
        <path id="Path_11457" data-name="Path 11457" d="M371.847,358.632a1.472,1.472,0,1,1,0-2.944h15.732a1.472,1.472,0,1,1,0,2.944Z" transform="translate(-364.464 -351.157)" fill="#fff" fill-rule="evenodd"/>
      </g>
      <g id="Group_6822" data-name="Group 6822" transform="translate(60.765 79.256)">
        <path id="Path_11458" data-name="Path 11458" d="M339.864,438.75h27.272a1.617,1.617,0,0,1,1.613,1.613v8.78a1.617,1.617,0,0,1-1.613,1.613H339.864a1.617,1.617,0,0,1-1.613-1.613v-8.78A1.617,1.617,0,0,1,339.864,438.75Z" transform="translate(-338.251 -438.75)" fill="#fe646f" fill-rule="evenodd"/>
        <path id="Path_11459" data-name="Path 11459" d="M366.908,438.75h.227a1.617,1.617,0,0,1,1.613,1.613v8.78a1.617,1.617,0,0,1-1.613,1.613H339.864a1.617,1.617,0,0,1-1.613-1.613v-.227H365.3a1.617,1.617,0,0,0,1.613-1.613Z" transform="translate(-338.251 -438.75)" fill="#fd4755" fill-rule="evenodd"/>
        <path id="Path_11460" data-name="Path 11460" d="M371.847,466.319a1.472,1.472,0,1,1,0-2.944h15.732a1.472,1.472,0,1,1,0,2.944Z" transform="translate(-364.464 -458.844)" fill="#fff" fill-rule="evenodd"/>
      </g>
    </g>
  </g>
</svg>
